<svg width="26" height="26" viewBox="0 0 26 26" xmlns="https://www.w3.org/2000/svg">
<path d="m 15.87891,4.67188 c -0.12781,0 -0.25559,0.0485 -0.35352,0.14648 l -0.70703,0.70703 c -0.19587,0.19587 -0.19587,0.51116 0,0.70703 L 16.58594,8 14.81836,9.76758 c -0.19587,0.19587 -0.19587,0.51117 0,0.70703 l 0.70703,0.70703 c 0.19586,0.19587 0.51116,0.19587 0.70703,0 L 18,9.41406 l 1.76758,1.76758 c 0.19587,0.19587 0.51117,0.19587 0.70703,0 l 0.70703,-0.70703 c 0.19587,-0.19586 0.19587,-0.51116 0,-0.70703 L 19.41406,8 21.18164,6.23242 c 0.19587,-0.19587 0.19587,-0.51117 0,-0.70703 L 20.47461,4.81836 c -0.19587,-0.19587 -0.51116,-0.19587 -0.70703,0 L 18,6.58594 16.23242,4.81836 C 16.13452,4.72046 16.00671,4.67186 15.87891,4.67188 Z M 7.5,7 A 0.50005,0.50005 0 0 0 7,7.5 V 22 a 0.50005,0.50005 0 0 0 0.85352,0.35352 L 13,17.20703 18.14648,22.35352 A 0.50005,0.50005 0 0 0 19,22 V 11.82813 l -1,-1 -1.76758,1.76757 c -0.15365,0.23048 -0.51116,0.19587 -0.70703,0 L 13.4043,10.47461 c -0.19587,-0.19587 -0.19587,-0.51116 0,-0.70703 L 15.17188,8 l -1,-1 z" style="fill: #000000; fill-opacity: 1; stroke: none; stroke-width: 2; stroke-linecap: butt; stroke-linejoin: miter; stroke-miterlimit: 4; stroke-dasharray: none; stroke-dashoffset: 0; stroke-opacity: 1;" />
</svg>