<svg width="26" height="26" viewBox="0 0 26 26" xmlns="https://www.w3.org/2000/svg">
<path d="m 12.5,7.50007 h -5 v 14.5 l 5.5,-5.5 5.5,5.5 v -8.5" style="fill: none; fill-opacity: 1; stroke: #000000; stroke-width: 1px; stroke-linecap: round; stroke-linejoin: round; stroke-opacity: 1;" />
<path d="M 17.5,4 C 17.223,4 17,4.223 17,4.5 V 7 H 14.5 C 14.223,7 14,7.223 14,7.5 v 1 C 14,8.777 14.223,9 14.5,9 H 17 v 2.5 c 0,0.277 0.223,0.5 0.5,0.5 h 1 C 18.777,12 19,11.777 19,11.5 V 9 h 2.5 C 21.777,9 22,8.777 22,8.5 v -1 C 22,7.223 21.777,7 21.5,7 H 19 V 4.5 C 19,4.223 18.777,4 18.5,4 Z" style="fill: #000000; fill-opacity: 1; stroke: none; stroke-width: 1px; stroke-linecap: butt; stroke-linejoin: round; stroke-miterlimit: 4; stroke-dasharray: none; stroke-dashoffset: 0; stroke-opacity: 1;" />
</svg>