<svg width="26" height="26" viewBox="0 0 26 26" xmlns="https://www.w3.org/2000/svg">
<path d="M 17.97656,2 A 0.50004997,0.50004997 0 0 0 17.54297,2.29688 L 15.9668,5.8418 12.44531,6.23438 a 0.50004997,0.50004997 0 0 0 -0.27148,0.87695 l 2.71484,2.32617 -1.17578,3.91797 a 0.50004997,0.50004997 0 0 0 0.75586,0.56055 L 18,11.5625 l 3.53125,2.35352 a 0.50004997,0.50004997 0 0 0 0.75,-0.57422 L 21.11133,9.82813 23.85352,7.08398 A 0.50004997,0.50004997 0 0 0 23.55469,6.23438 L 20.0332,5.8418 18.45703,2.29688 A 0.50004997,0.50004997 0 0 0 17.97656,2 Z M 7.5,7 A 0.50005,0.50005 0 0 0 7,7.5 V 22 a 0.50005,0.50005 0 0 0 0.85352,0.35352 L 13,17.20703 18.14648,22.35352 A 0.50005,0.50005 0 0 0 19,22 v -8.57031 l -1,-0.66602 -2.97656,1.98438 a 1.50015,1.50015 0 0 1 -2.26758,-1.67969 l 0.98828,-3.29492 -2.2207,-1.9043 A 1.50015,1.50015 0 0 1 11.02734,7 Z" style="fill: #000000; fill-opacity: 1; stroke: none; stroke-width: 1px; stroke-linecap: butt; stroke-linejoin: round; stroke-miterlimit: 4; stroke-dasharray: none; stroke-dashoffset: 0; stroke-opacity: 1;" />
</svg>