<svg width="26" height="26" viewBox="0 0 26 26" xmlns="https://www.w3.org/2000/svg">
<path d="M 17.5,4 C 17.223,4 17,4.223 17,4.5 V 7 H 14.5 C 14.223,7 14,7.223 14,7.5 v 1 C 14,8.777 14.223,9 14.5,9 H 17 v 2.5 c 0,0.277 0.223,0.5 0.5,0.5 h 1 C 18.777,12 19,11.777 19,11.5 V 9 h 2.5 C 21.777,9 22,8.777 22,8.5 v -1 C 22,7.223 21.777,7 21.5,7 H 19 V 4.5 C 19,4.223 18.777,4 18.5,4 Z M 7.5,7 A 0.50005,0.50005 0 0 0 7,7.5 V 22 a 0.50005,0.50005 0 0 0 0.853516,0.35352 L 13,17.20703 18.146484,22.35352 A 0.50005,0.50005 0 0 0 19,22 V 13 H 16.5 C 16.223,13 16,12.777 16,12.5 V 10 H 13.5 C 13.223,10 13,9.777 13,9.5 V 7 Z" style="fill: #000000; fill-opacity: 1; stroke: none; stroke-width: 1px; stroke-linecap: butt; stroke-linejoin: round; stroke-miterlimit: 4; stroke-dasharray: none; stroke-dashoffset: 0; stroke-opacity: 1;" />
</svg>