<svg width="26" height="26" viewBox="0 0 26 26" xmlns="https://www.w3.org/2000/svg">
<path d="M 15.88281,4.5 C 14.30346,4.5 13,5.76364 13,7.32422 c 0,0.78038 0.32759,1.49269 0.84961,2.00195 a 0.50005,0.50005 0 0 0 0.008,0.008 l 3.80273,3.53321 a 0.50005,0.50005 0 0 0 0.67969,0 l 3.80274,-3.53321 a 0.50005,0.50005 0 0 0 0.008,-0.008 C 22.67243,8.81691 23,8.1046 23,7.32422 23,5.76364 21.69654,4.5 20.11719,4.5 19.46912,4.5 18.93036,4.84323 18.51172,5.24609 18.28757,5.4618 18.16666,5.70419 18,5.94336 17.83334,5.70419 17.71243,5.4618 17.48828,5.24609 17.06964,4.84323 16.53088,4.5 15.88281,4.5 Z M 7.5,7 C 7.22387,7.00003 7.00003,7.22387 7,7.5 V 22 c 1.7e-4,0.44532 0.53852,0.66829 0.85352,0.35352 L 13,17.20703 18.14648,22.35352 C 18.46148,22.6683 18.99983,22.44532 19,22 v -7.77344 c -0.74511,0.43197 -1.70548,0.34753 -2.36133,-0.26172 l -3.83789,-3.5664 C 12.00608,9.62315 11.5,8.52036 11.5,7.32422 11.5,7.21323 11.5247,7.10886 11.5332,7 Z" style="fill: #000000; fill-opacity: 1; stroke: none; stroke-width: 1px; stroke-linecap: round; stroke-linejoin: round; stroke-miterlimit: 4; stroke-dasharray: none; stroke-dashoffset: 0; stroke-opacity: 1;" />
</svg>