<svg width="26" height="26" viewBox="0 0 26 26" xmlns="https://www.w3.org/2000/svg">
<path d="m 20.64258,4.74609 c -0.13279,-0.004 -0.26181,0.0438 -0.33985,0.15821 L 17.08594,8.62305 15.69727,7.23438 c -0.19587,-0.19585 -0.51117,-0.19587 -0.70704,0 L 14.2832,7.94141 c -0.19587,0.19586 -0.19587,0.51116 0,0.70703 l 2.44922,2.44922 c 0.19587,0.19586 0.51116,0.19586 0.70703,0 L 21.7168,6.32031 c 0.19587,-0.19587 0.19587,-0.51116 0,-0.70703 L 21.00977,4.9043 C 20.91187,4.8064 20.77536,4.75009 20.64258,4.74609 Z" style="fill: #000000; fill-opacity: 1; stroke: none; stroke-width: 1px; stroke-linecap: butt; stroke-linejoin: round; stroke-miterlimit: 4; stroke-dasharray: none; stroke-dashoffset: 0; stroke-opacity: 1;" />
<path d="M 13,7.50007 H 7.5 v 14.5 l 5.5,-5.5 5.5,5.5 v -10" style="fill: none; fill-opacity: 1; stroke: #000000; stroke-width: 1px; stroke-linecap: round; stroke-linejoin: round; stroke-opacity: 1;" />
</svg>