<svg width="26" height="26" viewBox="0 0 26 26" xmlns="https://www.w3.org/2000/svg">
<path d="m 3.5,15.5 v -9 h 19 v 13 h -11" style="fill: none; stroke: #000000; stroke-linecap: round; stroke-linejoin: round;" />
<rect x="3" y="8" width="20" height="3" style="fill: #000000; fill-opacity: 1; stroke: none; stroke-width: 1; stroke-linecap: round; stroke-linejoin: round; stroke-miterlimit: 4; stroke-dasharray: none; stroke-dashoffset: 0; stroke-opacity: 1;" />
<rect x="17" y="14" width="4" height="4" rx="0.5" ry="0.5" style="fill: #000000; fill-opacity: 1; stroke: none; stroke-width: 1; stroke-linecap: round; stroke-linejoin: round; stroke-miterlimit: 4; stroke-dasharray: none; stroke-dashoffset: 0; stroke-opacity: 1;" />
<path d="m 9.47487,16.81802 c -0.19587,-0.19587 -0.51123,-0.19587 -0.7071,0 L 7,18.58579 5.23223,16.81802 c -0.19587,-0.19587 -0.51124,-0.19587 -0.7071,0 l -0.70711,0.70711 c -0.19587,0.19587 -0.19587,0.51123 0,0.7071 L 5.58579,20 3.81802,21.76777 c -0.19587,0.19587 -0.19587,0.51124 0,0.7071 l 0.70711,0.70711 c 0.19586,0.19587 0.51123,0.19587 0.7071,0 L 7,21.41421 8.76777,23.18198 c 0.19587,0.19587 0.51124,0.19587 0.7071,0 l 0.70711,-0.70711 c 0.19587,-0.19586 0.19587,-0.51123 0,-0.7071 L 8.41421,20 10.18198,18.23223 c 0.19587,-0.19587 0.19587,-0.51124 0,-0.7071 z" style="fill: #000000; fill-opacity: 1; stroke: none; stroke-width: 2; stroke-linecap: butt; stroke-linejoin: miter; stroke-miterlimit: 4; stroke-dasharray: none; stroke-dashoffset: 0; stroke-opacity: 1;" />
</svg>