<svg width="26" height="26" viewBox="0 0 26 26" xmlns="https://www.w3.org/2000/svg">
<path d="M 3.5,6 C 3.22387,6.000028 3.000028,6.22387 3,6.5 V 8 H 23 V 6.5 C 22.999972,6.22387 22.776131,6.000028 22.5,6 Z M 3,11 v 7.224609 l 0.990234,-0.990234 c 0.19587,-0.19587 0.511162,-0.19585 0.707032,0 l 1.388672,1.388672 3.216796,-3.71875 c 0.07804,-0.11441 0.207055,-0.162203 0.339844,-0.158203 0.13278,0.004 0.269287,0.0603 0.367188,0.158203 l 2.707031,2.708984 c 0.19587,0.19587 0.19587,0.511163 0,0.707031 L 11.181641,20 H 22.5 c 0.276131,-2.8e-5 0.499972,-0.223869 0.5,-0.5 V 11 Z m 14.5,3 h 3 c 0.277,0 0.5,0.223 0.5,0.5 v 3 c 0,0.277 -0.223,0.5 -0.5,0.5 h -3 C 17.223,18 17,17.777 17,17.5 v -3 C 17,14.223 17.223,14 17.5,14 Z m -7.90625,2.746094 c -0.114721,0.008 -0.222731,0.05809 -0.291016,0.158203 l -3.216796,3.71875 -1.388672,-1.388672 c -0.19587,-0.19585 -0.511162,-0.19587 -0.707032,0 l -0.707031,0.707031 c -0.19587,0.19586 -0.19587,0.511162 0,0.707032 l 2.449219,2.449218 c 0.19587,0.19586 0.511161,0.19586 0.707031,0 l 4.277344,-4.777344 c 0.19587,-0.195869 0.19587,-0.511161 0,-0.707031 l -0.707031,-0.708984 c -0.0979,-0.0979 -0.234408,-0.154203 -0.367188,-0.158203 -0.0166,-5e-4 -0.03244,-0.0011 -0.04883,0 z" style="fill: #000000; fill-opacity: 1; stroke: none; stroke-width: 1; stroke-linecap: round; stroke-linejoin: round; stroke-miterlimit: 4; stroke-dasharray: none; stroke-dashoffset: 0; stroke-opacity: 1;" />
</svg>