<svg width="26" height="26" viewBox="0 0 26 26" xmlns="https://www.w3.org/2000/svg">
<path d="M 3.5,6 C 3.22387,6.000028 3.000028,6.22387 3,6.5 V 8 H 23 V 6.5 C 22.999972,6.22387 22.776131,6.000028 22.5,6 Z M 3,11 v 7 h 8.5 c 0.277,0 0.5,0.223 0.5,0.5 V 20 h 10.5 c 0.276131,-2.8e-5 0.499972,-0.223869 0.5,-0.5 V 11 Z m 14.5,3 h 3 c 0.277,0 0.5,0.223 0.5,0.5 v 3 c 0,0.277 -0.223,0.5 -0.5,0.5 h -3 C 17.223,18 17,17.777 17,17.5 v -3 C 17,14.223 17.223,14 17.5,14 Z m -14,5 C 3.223,19 3,19.223 3,19.5 v 1 C 3,20.777 3.223,21 3.5,21 h 7 c 0.277,0 0.5,-0.223 0.5,-0.5 v -1 C 11,19.223 10.777,19 10.5,19 Z" style="fill: #000000; fill-opacity: 1; stroke: none; stroke-width: 1; stroke-linecap: round; stroke-linejoin: round; stroke-miterlimit: 4; stroke-dasharray: none; stroke-dashoffset: 0; stroke-opacity: 1;" />
</svg>