<svg width="26" height="26" viewBox="0 0 26 26" xmlns="https://www.w3.org/2000/svg">
<path d="m 3.5,17.5 v -11 h 19 v 13 h -11" style="fill: none; stroke: #000000; stroke-linecap: round; stroke-linejoin: round;" />
<rect x="3" y="8" width="20" height="3" style="fill: #000000; fill-opacity: 1; stroke: none; stroke-width: 1; stroke-linecap: round; stroke-linejoin: round; stroke-miterlimit: 4; stroke-dasharray: none; stroke-dashoffset: 0; stroke-opacity: 1;" />
<rect x="17" y="14" width="4" height="4" rx="0.5" ry="0.5" style="fill: #000000; fill-opacity: 1; stroke: none; stroke-width: 1; stroke-linecap: round; stroke-linejoin: round; stroke-miterlimit: 4; stroke-dasharray: none; stroke-dashoffset: 0; stroke-opacity: 1;" />
<path d="m 9.64258,16.74609 c -0.13279,-0.004 -0.26181,0.0438 -0.33985,0.15821 L 6.08594,20.62305 4.69727,19.23437 c -0.19587,-0.19585 -0.51117,-0.19587 -0.70704,0 L 3.2832,19.94141 c -0.19587,0.19586 -0.19587,0.51116 0,0.70703 l 2.44922,2.44922 c 0.19587,0.19586 0.51116,0.19586 0.70703,0 l 4.27735,-4.77735 c 0.19587,-0.19587 0.19587,-0.51116 0,-0.70703 L 10.00977,16.9043 C 9.91187,16.8064 9.77536,16.75009 9.64258,16.74609 Z" style="fill: #000000; fill-opacity: 1; stroke: none; stroke-width: 1px; stroke-linecap: butt; stroke-linejoin: round; stroke-miterlimit: 4; stroke-dasharray: none; stroke-dashoffset: 0; stroke-opacity: 1;" />
</svg>