<svg width="26" height="26" viewBox="0 0 26 26" xmlns="https://www.w3.org/2000/svg">
<path d="M 3.5,6 C 3.22387,6.000028 3.000028,6.22387 3,6.5 V 8 H 23 V 6.5 C 22.999972,6.22387 22.776131,6.000028 22.5,6 Z M 3,11 v 5.34375 l 1.525391,-1.525391 c 0.195859,-0.195868 0.511161,-0.195868 0.707031,0 L 7,16.585938 8.767578,14.818359 c 0.19587,-0.195868 0.511162,-0.195868 0.707031,0 l 2.707032,2.707032 c 0.195868,0.195858 0.195868,0.511161 0,0.707031 L 10.414062,20 H 22.5 c 0.276131,-2.8e-5 0.499972,-0.223869 0.5,-0.5 V 11 Z m 14.5,3 h 3 c 0.277,0 0.5,0.223 0.5,0.5 v 3 c 0,0.277 -0.223,0.5 -0.5,0.5 h -3 C 17.223,18 17,17.777 17,17.5 v -3 C 17,14.223 17.223,14 17.5,14 Z M 4.878906,16.671875 c -0.127808,0 -0.255585,0.04855 -0.353515,0.146484 l -0.707032,0.707032 c -0.195869,0.195869 -0.195869,0.511161 0,0.707031 L 5.585938,20 3.818359,21.767578 c -0.195869,0.19587 -0.195869,0.511172 0,0.707031 l 0.707032,0.707032 c 0.195859,0.195869 0.511161,0.195869 0.707031,0 L 7,21.414062 8.767578,23.181641 c 0.19587,0.195869 0.511172,0.195869 0.707031,0 l 0.707032,-0.707032 c 0.195869,-0.195859 0.195869,-0.511161 0,-0.707031 L 8.414063,20 10.181641,18.232422 c 0.195869,-0.19587 0.195869,-0.511172 0,-0.707031 L 9.474609,16.818359 c -0.195869,-0.195869 -0.511161,-0.195869 -0.707031,0 L 7,18.585938 5.232422,16.818359 C 5.134492,16.720429 5.006715,16.671875 4.878906,16.671875 Z" style="fill: #000000; fill-opacity: 1; stroke: none; stroke-width: 1; stroke-linecap: round; stroke-linejoin: round; stroke-miterlimit: 4; stroke-dasharray: none; stroke-dashoffset: 0; stroke-opacity: 1;" />
</svg>