<svg width="26" height="26" viewBox="0 0 26 26" xmlns="https://www.w3.org/2000/svg">
<path d="M 3.5,6 C 3.22387,6.00003 3.000028,6.22387 3,6.5 V 8 H 23 V 6.5 C 22.999972,6.22387 22.776131,6.00003 22.5,6 Z M 3,11 v 2.79102 C 3.307319,13.19061 3.741064,12.67434 4.257813,12.27734 5.242872,11.52056 6.410674,11.2207 7.5,11.2207 c 1.089326,0 2.257127,0.29986 3.242188,1.05664 C 11.792705,13.08441 12.5,14.38569 12.5,15.88086 v 1.25 c 0.576988,0.46186 1,1.08929 1,1.86914 v 1 h 9 c 0.276131,-3e-5 0.499972,-0.22387 0.5,-0.5 V 11 Z m 14.5,3 h 3 c 0.277,0 0.5,0.223 0.5,0.5 v 3 c 0,0.277 -0.223,0.5 -0.5,0.5 h -3 C 17.223,18 17,17.777 17,17.5 v -3 C 17,14.223 17.223,14 17.5,14 Z M 4,18 c -0.553997,0 -1,0.446 -1,1 v 4 c 0,0.553999 0.446003,1 1,1 h 7 c 0.553998,0 1,-0.446001 1,-1 v -4 c 0,-0.554 -0.446002,-1 -1,-1 z m 3.5,2 C 7.776142,20 8,20.22386 8,20.5 l 0.5,1 C 8.54554,21.77323 8.277,22 8,22 H 7 C 6.723001,22 6.45446,21.77323 6.5,21.5 L 7,20.5 C 7,20.22386 7.223858,20 7.5,20 Z" style="fill: #000000; fill-opacity: 1; stroke: none; stroke-width: 1; stroke-linecap: round; stroke-linejoin: round; stroke-miterlimit: 4; stroke-dasharray: none; stroke-dashoffset: 0; stroke-opacity: 1;" />
<path d="m 5,18.48551 v -2.60478 c 0,-2.88097 5,-2.88097 5,0 v 2.60478" style="fill: none; stroke: #000000; stroke-width: 2; stroke-linecap: butt; stroke-linejoin: round; stroke-miterlimit: 4; stroke-dasharray: none; stroke-opacity: 1;" />
</svg>