<svg width="26" height="26" viewBox="0 0 26 26" xmlns="https://www.w3.org/2000/svg">
<path d="M 3.5,6 A 0.50005,0.50005 0 0 0 3,6.5 V 8 H 23 V 6.5 A 0.50005,0.50005 0 0 0 22.5,6 Z M 3,11 v 8.5 A 0.50005,0.50005 0 0 0 3.5,20 h 19 A 0.50005,0.50005 0 0 0 23,19.5 V 11 Z m 2.5,2 h 3 A 0.5,0.5 0 0 1 9,13.5 0.5,0.5 0 0 1 8.5,14 h -3 A 0.5,0.5 0 0 1 5,13.5 0.5,0.5 0 0 1 5.5,13 Z m 6.5,0 h 0.5 A 0.5,0.5 0 0 1 13,13.5 0.5,0.5 0 0 1 12.5,14 H 12 c -0.329243,0 -0.712002,0.20869 -0.869141,0.49219 -0.17282,0.31179 -0.17282,0.70383 0,1.01562 C 11.287998,15.79131 11.670757,16 12,16 h 0.5 A 0.5,0.5 0 0 1 13,16.5 0.5,0.5 0 0 1 12.5,17 H 12 c -0.699713,0 -1.386799,-0.36311 -1.744141,-1.00781 -0.341657,-0.61641 -0.341657,-1.36797 0,-1.98438 C 10.613201,13.36311 11.300287,13 12,13 Z m 8,0 h 0.5 A 0.5,0.5 0 0 1 21,13.5 0.5,0.5 0 0 1 20.5,14 H 20 c -0.329243,0 -0.712002,0.20869 -0.869141,0.49219 -0.17282,0.31179 -0.17282,0.70383 0,1.01562 C 19.287998,15.79131 19.670757,16 20,16 h 0.5 A 0.5,0.5 0 0 1 21,16.5 0.5,0.5 0 0 1 20.5,17 H 20 c -0.699713,0 -1.386799,-0.36311 -1.744141,-1.00781 -0.341657,-0.61641 -0.341657,-1.36797 0,-1.98438 C 18.613201,13.36311 19.300287,13 20,13 Z m -6.035156,0.002 a 0.5,0.5 0 0 1 0.193359,0.0234 0.5,0.5 0 0 1 0.289063,0.25195 L 15.5,15.38277 16.552734,13.2773 a 0.5,0.5 0 0 1 0.669922,-0.22461 0.5,0.5 0 0 1 0.22461,0.66993 l -1.5,3 a 0.50005,0.50005 0 0 1 -0.894532,0 l -1.5,-3 a 0.5,0.5 0 0 1 0.22461,-0.66993 0.5,0.5 0 0 1 0.1875,-0.0508 z M 6.5,15 h 2 A 0.5,0.5 0 0 1 9,15.5 0.5,0.5 0 0 1 8.5,16 h -2 A 0.5,0.5 0 0 1 6,15.5 0.5,0.5 0 0 1 6.5,15 Z" style="fill: #000000; stroke: none; stroke-linecap: round; stroke-linejoin: round;" />
</svg>