<svg width="26" height="26" viewBox="0 0 26 26" xmlns="https://www.w3.org/2000/svg">
<path d="m 3.5000005,12.5 v -6 H 22.5 v 13 h -8.999999" style="fill: none; stroke: #000000; stroke-linecap: round; stroke-linejoin: round;" />
<rect x="3.0000005" y="8" width="20" height="3" style="fill: #000000; fill-opacity: 1; stroke: none; stroke-width: 1; stroke-linecap: round; stroke-linejoin: round; stroke-miterlimit: 4; stroke-dasharray: none; stroke-dashoffset: 0; stroke-opacity: 1;" />
<rect x="17" y="14" width="4" height="4" rx="0.5" ry="0.5" style="fill: #000000; fill-opacity: 1; stroke: none; stroke-width: 1; stroke-linecap: round; stroke-linejoin: round; stroke-miterlimit: 4; stroke-dasharray: none; stroke-dashoffset: 0; stroke-opacity: 1;" />
<rect x="17" y="14" width="4" height="4" rx="0.5" ry="0.5" style="fill: #000000; fill-opacity: 1; stroke: none; stroke-width: 1; stroke-linecap: round; stroke-linejoin: round; stroke-miterlimit: 4; stroke-dasharray: none; stroke-dashoffset: 0; stroke-opacity: 1;" />
<path d="m 4.0000005,18 c -0.553998,0 -1,0.446 -1,1 v 4 c 0,0.554 0.446002,1 1,1 h 7.0000005 c 0.553999,0 1,-0.446 1,-1 v -4 c 0,-0.554 -0.446001,-1 -1,-1 z m 3.5,2 c 0.276142,0 0.5,0.22386 0.5,0.5 l 0.5,1 c 0.04554,0.27323 -0.223,0.5 -0.5,0.5 h -1 c -0.276999,0 -0.54554,-0.22677 -0.5,-0.5 l 0.5,-1 c 0,-0.27614 0.223858,-0.5 0.5,-0.5 z" style="fill: #000000; fill-opacity: 1; stroke: #1e4177; stroke-width: 0; stroke-linecap: round; stroke-linejoin: round; stroke-miterlimit: 4; stroke-dasharray: none; stroke-dashoffset: 0; stroke-opacity: 1;" />
<path d="m 5.0000005,18.48551 v -2.60478 c 0,-2.88097 5.0000005,-2.88097 5.0000005,0 v 2.60478" style="fill: none; stroke: #000000; stroke-width: 2; stroke-linecap: butt; stroke-linejoin: round; stroke-miterlimit: 4; stroke-dasharray: none; stroke-opacity: 1;" />
</svg>