<svg width="26" height="26" viewBox="0 0 26 26" xmlns="https://www.w3.org/2000/svg">
<path d="m 19.5,16.4999 v 1 c 0,1 1.9779,1.013864 2,2.5 0,0 0,1.5 -1.5,1.5 -1.5,0 -1.5,-1.5 -1.5,-1.5 m 2,-4.499998 c 0,0.552286 -0.44772,1.000002 -1,1.000002 -0.55228,0 -1,-0.447716 -1,-1.000002 0,-0.552286 0.44772,-1.000002 1,-1.000002 0.55228,0 1,0.447716 1,1.000002 z m 3,7.999998 h -21 m 0,-17.9999999 h 4 v 5.0000039 h -4 z m 4,4 h 17 l -2,-3 H 6.5 Z M 12.5,22.9999 V 9.4999001 M 9.5,22.9999 V 9.4999001 m 0,-3 v -4 l 3,4" style="fill: none; stroke: #000000; stroke-width: 1px; stroke-linecap: round; stroke-linejoin: round; stroke-opacity: 1;" />
<path d="m 18.5,10.4999 1,4 1,-4 m -1,-3.9999999 -10,-4 -6,3 m 4,4 2,-3 2,3 2,-3 2,3 2,-3 2,3 2,-3 m -9,3 -3,1.9999999 3,2 -3,2 3,2 -3,2 3,2 -3,2" style="fill: none; stroke: #000000; stroke-width: 0.6; stroke-linecap: round; stroke-linejoin: round; stroke-dasharray: none; stroke-opacity: 1;" />
</svg>