<svg width="26" height="26" viewBox="0 0 26 26" xmlns="https://www.w3.org/2000/svg">
<path d="m 18.500069,14 c -0.277,0 -0.5,0.223 -0.5,0.5 v 2 c 0,0.277 0.223,0.5 0.5,0.5 h 2 c 0.277,0 0.5,-0.223 0.5,-0.5 v -2 c 0,-0.277 -0.223,-0.5 -0.5,-0.5 z m -9.4999995,-2 -0.5,1 h -2 v 1.5 h 2.5 l 1.4999995,1.5 0.5,-1 3,-2 h -4 z" style="fill: #000000; stroke: none; stroke-width: 1px; stroke-linecap: butt; stroke-linejoin: miter; stroke-opacity: 1;" />
<path d="m 8.5000695,17.500002 c 0,0.552286 -0.44772,1.000002 -1,1.000002 -0.55228,0 -1,-0.447716 -1,-1.000002 0,-0.552286 0.44772,-1.000002 1,-1.000002 0.55228,0 1,0.447716 1,1.000002 z" style="fill: none; stroke: #000000; stroke-width: 1.1; stroke-linecap: round; stroke-linejoin: round; stroke-dasharray: none; stroke-opacity: 1;" />
<path d="m 16.500069,7.5 v 8 m 0,3 h 4 m -13.4999995,-4 h -0.5 V 13 c 0,0 0,-0.5 0.5,-0.5 h 1.5 v -4 h 3.4999995 c 2.02031,0 2.5,5 2.5,5 -1.5,0 -4,0.5 -4,4 0,-1.5 -1.4999995,-3 -3.4999995,-3 z M 15.500069,17 c 0,0.828427 -0.67157,1.5 -1.5,1.5 -0.82843,0 -1.5,-0.671573 -1.5,-1.5 0,-0.828427 0.67157,-1.5 1.5,-1.5 0.82843,0 1.5,0.671573 1.5,1.5 z" style="fill: none; stroke: #000000; stroke-width: 1px; stroke-linecap: round; stroke-linejoin: round; stroke-opacity: 1;" />
</svg>