<svg width="26" height="26" viewBox="0 0 26 26" xmlns="https://www.w3.org/2000/svg">
<circle cx="21" cy="18" r="1.75" style="fill: none; stroke: #000000; stroke-width: 1.5; stroke-linecap: round; stroke-linejoin: round; stroke-dasharray: none; stroke-opacity: 1;" />
<circle cx="11" cy="18" r="1.75" style="fill: none; stroke: #000000; stroke-width: 1.5; stroke-linecap: round; stroke-linejoin: round; stroke-dasharray: none; stroke-opacity: 1;" />
<circle cx="6" cy="18" r="1.75" style="fill: none; stroke: #000000; stroke-width: 1.5; stroke-linecap: round; stroke-linejoin: round; stroke-dasharray: none; stroke-opacity: 1;" />
<path d="m 16.5,6 c -0.0315,2.976e-4 -0.0629,0.00357 -0.0937,0.00977 l -13,2.5 C 3.17086,8.5547182 3.00045,8.7603552 3,9 v 3.5 c 3e-5,0.276131 0.22387,0.499972 0.5,0.5 h 13 c 0.27613,-2.8e-5 0.49997,-0.223869 0.5,-0.5 V 7 Z m 1.5,6 v 2 H 3.5 c -0.27613,2.8e-5 -0.49997,0.223869 -0.5,0.5 v 1 c 2e-5,0.1326 0.0527,0.25976 0.14648,0.353516 l 0.0606,0.06055 C 3.84935,15.06093 4.86612,14.5 6,14.5 c 0.97328,0 1.86141,0.412315 2.5,1.068359 C 9.13859,14.912315 10.02672,14.5 11,14.5 c 1.91226,0 3.5,1.587741 3.5,3.5 0,0.170173 -0.0168,0.335857 -0.041,0.5 h 3.08203 c -0.0243,-0.164143 -0.041,-0.329827 -0.041,-0.5 0,-1.912259 1.58774,-3.5 3.5,-3.5 1.17083,0 2.2163,0.599167 2.85352,1.5 H 24 v -4 z" style="fill: #000000; stroke: none; stroke-linejoin: round;" />
<path d="m 20,6.5 h -3.5 m 5.5,2 1.5,3.5 m -5,2 V 8.5 h 5" style="fill: none; stroke: #000000; stroke-width: 1px; stroke-linecap: round; stroke-linejoin: round; stroke-opacity: 1;" />
</svg>