<svg width="26" height="26" viewBox="0 0 26 26" xmlns="https://www.w3.org/2000/svg">
<path d="M 2.5,7 C 2.2238703,7.0000276 2.00003,7.2238697 2,7.5 v 1 c 1.8e-4,0.171131 0.087902,0.330285 0.2324219,0.421875 l 9.5000001,6 C 11.812422,14.972755 11.9052,14.99984 12,15 h 2 c 0.18961,-1.72e-4 0.362816,-0.107574 0.447266,-0.277344 l 3.5,-6.9999998 L 17.5,7 Z m 3.0351562,1.001953 a 0.5,0.5 0 0 1 0.1875,0.05078 0.5,0.5 0 0 1 0.2246094,0.669922 l -0.25,0.5 A 0.5,0.5 0 0 1 5.0273438,9.447265 0.5,0.5 0 0 1 4.8027344,8.777343 l 0.25,-0.5 A 0.5,0.5 0 0 1 5.3417969,8.02539 0.5,0.5 0 0 1 5.5351562,8.00195 Z m 2,0 a 0.5,0.5 0 0 1 0.1875,0.05078 0.5,0.5 0 0 1 0.2246094,0.669922 l -0.75,1.5 A 0.5,0.5 0 0 1 6.5273438,10.447265 0.5,0.5 0 0 1 6.3027344,9.777343 l 0.75,-1.5 A 0.5,0.5 0 0 1 7.3417969,8.02539 0.5,0.5 0 0 1 7.5351562,8.00195 Z m 5.9999998,0 a 0.5,0.5 0 0 1 0.1875,0.05078 0.5,0.5 0 0 1 0.22461,0.669922 l -2,4 a 0.5,0.5 0 0 1 -0.669922,0.22461 0.5,0.5 0 0 1 -0.22461,-0.669922 l 2,-4 a 0.5,0.5 0 0 1 0.289063,-0.251954 0.5,0.5 0 0 1 0.193359,-0.02344 z m 2,0 a 0.5,0.5 0 0 1 0.1875,0.05078 0.5,0.5 0 0 1 0.22461,0.669922 l -2.5,5 a 0.5,0.5 0 0 1 -0.669922,0.22461 0.5,0.5 0 0 1 -0.22461,-0.669922 l 2.5,-5 a 0.5,0.5 0 0 1 0.289063,-0.251954 0.5,0.5 0 0 1 0.193359,-0.02344 z m -5.9785154,0.0019 A 0.5,0.5 0 0 1 9.7421875,8.0625 0.5,0.5 0 0 1 9.9375,8.742188 l -1.25,2.25 A 0.5,0.5 0 0 1 8.0078125,11.1875 0.5,0.5 0 0 1 7.8125,10.507812 l 1.25,-2.249999 A 0.5,0.5 0 0 1 9.5566406,8.003906 Z m 1.9921874,0 a 0.5,0.5 0 0 1 0.1875,0.05664 0.5,0.5 0 0 1 0.203125,0.675781 l -1.75,3.25 a 0.5,0.5 0 0 1 -0.6757811,0.203128 0.5,0.5 0 0 1 -0.203125,-0.675781 l 1.7500001,-3.25 a 0.5,0.5 0 0 1 0.294922,-0.242188 0.5,0.5 0 0 1 0.193359,-0.01758 z M 18,11 17.552734,11.277344 17,12.382812 v 0.59375 A 4.5,4.5 0 0 1 19,12.5 4.5,4.5 0 0 1 22.34375,14 H 23 v -3 z m -6.613281,5 A 4.5,4.5 0 0 1 11.5,17 4.5,4.5 0 0 1 11.376953,18 h 3.246094 A 4.5,4.5 0 0 1 14.5,17 4.5,4.5 0 0 1 14.623047,16 Z" style="fill: #000000; stroke: none; stroke-linecap: round; stroke-linejoin: round;" />
<circle cx="19" cy="17" r="2.5" style="fill: none; stroke: #000000; stroke-width: 2; stroke-linecap: round; stroke-linejoin: round; stroke-dasharray: none; stroke-opacity: 1;" />
<circle cx="7" cy="17" r="2.5" style="fill: none; stroke: #000000; stroke-width: 2; stroke-linecap: round; stroke-linejoin: round; stroke-dasharray: none; stroke-opacity: 1;" />
<path d="m 17,8.5 1.5,-3 h 4 m -4.5,6 1.5,-3 h 3 v 3" style="fill: none; stroke: #000000; stroke-width: 1px; stroke-linecap: round; stroke-linejoin: round; stroke-opacity: 1;" />
</svg>