<svg width="26" height="26" viewBox="0 0 26 26" xmlns="https://www.w3.org/2000/svg">
<path d="m 21.5,3.0000016 a 0.50005,0.50005 0 0 0 -0.2168,0.048828 L 10.96875,8.0000016 H 13 a 1.50015,1.50015 0 0 1 1.42383,1.0253906 L 15.02539,10.83008 21.83008,4.8769547 A 0.50005,0.50005 0 0 0 22,4.5000016 v -1 a 0.50005,0.50005 0 0 0 -0.5,-0.5 z M 20.94922,4.3203141 C 19.13281,5.9095052 17.31641,7.4987011 15.5,9.0878922 15.32465,8.4490365 14.99234,7.8255196 14.42773,7.4511735 Z M 4.5,12.000002 c 0,0 -0.0961,0.0057 -0.1582,0.02344 -0.062,0.01773 -0.13116,0.04772 -0.19727,0.0918 -0.13221,0.08814 -0.24948,0.227481 -0.3418,0.41211 C 3.61811,12.896586 3.5,13.458346 3.5,14.500008 c 0,1.041662 0.11811,1.603404 0.30273,1.972656 0.0923,0.184629 0.20959,0.323967 0.3418,0.41211 0.0661,0.04407 0.13522,0.07407 0.19727,0.0918 0.06205,0.01771 0.1582,0.02343 0.1582,0.02343 H 15 c 0.27613,-2.8e-5 0.49997,-0.223869 0.5,-0.5 v -1 c -3e-5,-0.276131 -0.22387,-0.499972 -0.5,-0.5 h -3.79297 l -3.20703,-3 z m 16,2 a 2.5,2.5 0 0 0 -2.5,2.5 2.5,2.5 0 0 0 2.5,2.5 2.5,2.5 0 0 0 2.5,-2.5 2.5,2.5 0 0 0 -2.5,-2.5 z" style="fill: #000000; stroke: none; stroke-linecap: round; stroke-linejoin: round;" />
<path d="M 20.5,12.500002 V 7.5000016 M 8.5,13.000002 V 9.5000016 H 13 l 2,6.0000004 m 0,6 H 6 c -2.01915,-0.01153 -2,-3 0,-3 h 9 c 2,0 2,3 0,3 z" style="fill: none; stroke: #000000; stroke-width: 1px; stroke-linecap: round; stroke-linejoin: round; stroke-opacity: 1;" />
</svg>