<svg width="26" height="26" viewBox="0 0 26 26" xmlns="https://www.w3.org/2000/svg">
<path d="m 5.5001751,9.9999995 c -0.246714,3.25e-5 -0.456534,0.1799965 -0.494141,0.4238275 l -1,6.500001 c -0.03146,0.200994 0.06198,0.401014 0.236328,0.505859 l 0.759766,0.457031 C 5.0633221,16.298909 6.3991721,15 8.0001751,15 c 0.349905,0 0.685982,0.06228 1,0.175781 V 15 c 1.28e-4,-0.03678 -0.0038,-0.07346 -0.01172,-0.109375 l -0.98828,-4.8906255 z m 3.751953,1.1503905 0.238281,1.177734 3.0097659,1.041017 V 14 H 9.8283001 l 0.136719,0.675781 C 9.9885131,14.782334 10.000271,14.891016 10.000175,15 h 3.5 c 0.416666,0 1.080186,0.117264 1.587891,0.472656 0.507702,0.355393 0.912109,0.910679 0.912109,2.027344 0.0093,0.657303 0.990704,0.657303 1,0 v -2 c 8.5e-5,-0.113565 -0.03849,-0.223775 -0.109375,-0.3125 l -2,-2.500001 c -0.07202,-0.08963 -0.172721,-0.151714 -0.285156,-0.175781 z m 9.3066409,4.853516 c -0.05078,-0.0058 -0.102163,-0.0038 -0.152344,0.0059 -0.205767,0.03881 -0.365559,0.201725 -0.400391,0.408203 l -0.5,3 C 17.45536,19.723064 17.69094,20.000526 18.000175,20 h 3.5 c 0.567905,6.64e-4 0.697159,-0.795603 0.158203,-0.97461 l -1.324219,-0.441407 -1.404296,-2.341796 c -0.0801,-0.13263 -0.21716,-0.220636 -0.371094,-0.238281 z" style="fill: #000000; stroke: none; stroke-linecap: round; stroke-linejoin: round;" />
<path d="m 9.5001761,18.000001 a 1.5000005,1.5 0 0 1 -1.5,1.5 1.5000005,1.5 0 0 1 -1.500001,-1.5 1.5000005,1.5 0 0 1 1.500001,-1.5 1.5000005,1.5 0 0 1 1.5,1.5 z m -2.000001,-8.0000015 0.5,-1.5 h 4.9999999 l 0.5,2.4999995 m 1,7.000003 a 1.5000005,1.5 0 0 1 -1.5,1.5 1.5000005,1.5 0 0 1 -1.5,-1.5 1.5000005,1.5 0 0 1 1.5,-1.5 1.5000005,1.5 0 0 1 1.5,1.5 z" style="fill: none; stroke: #000000; stroke-width: 0.999999; stroke-linecap: round; stroke-linejoin: round;" />
</svg>