<svg width="26" height="26" viewBox="0 0 26 26" xmlns="https://www.w3.org/2000/svg">
<path d="m 6.9996965,8.0000003 c -0.15979,-1.638e-4 -0.310038,0.07605 -0.404297,0.2050781 l -4,5.5000006 c -0.366677,0.51067 0.35139,1.093082 0.775391,0.628906 l 3.628906,-4.03125 v 0.990235 l -0.853516,0.853515 c -0.093767,0.09376 -0.146459,0.220916 -0.146484,0.353516 v 1.5 c 2.5e-5,0.1326 0.05272,0.25976 0.146484,0.353516 l 0.78125,0.78125 c 0.65153,-0.709068 1.578417,-1.133608 2.572266,-1.134766 1.9329885,0 3.4999995,1.56701 3.4999995,3.499999 0,0.169832 -0.01373,0.336633 -0.03711,0.5 h 1.5625 c 0.12876,-1.410695 1.308069,-2.492785 2.72461,-2.5 1.229482,5.46e-4 2.309218,0.817126 2.644531,2 h 0.105469 v 1 c 2.8e-5,0.276131 0.223869,0.499972 0.5,0.5 h 3 c 0.527042,-0.0011 0.694014,-0.711478 0.222656,-0.947266 L 22.821962,17.601562 20.890321,15.1875 C 20.757729,15.021147 20.534405,14.956894 20.33368,15.027344 20.133226,15.09792 19.999277,15.287485 19.999696,15.5 V 16 h -0.292969 l -0.707031,-0.707031 v -0.792968 c -3.57e-4,-0.229219 -0.156515,-0.428844 -0.378906,-0.484375 0,0 -3.880968,-0.971581 -4.621094,-1.015625 v 1 h -1.904297 l -2.0957025,-1 h -2 V 8.5000003 c -2.8e-5,-0.2761297 -0.22387,-0.4999724 -0.5,-0.5 z m -4.03125,7.0019527 c -0.177834,0.01112 -0.336311,0.116031 -0.416016,0.275392 l -0.5,0.999999 c -0.09574,0.192251 -0.05797,0.424165 0.09375,0.576172 l 1,1.5 c 0.195266,0.195189 0.511766,0.195189 0.707032,0 l 2,-1.5 c 0.398163,-0.40076 -0.06966,-1.050955 -0.576172,-0.800782 l -0.777344,0.388672 -1.277344,-1.388672 c -0.07871,-0.03893 -0.166279,-0.05648 -0.253906,-0.05078 z" style="fill: #000000; stroke: none; stroke-linecap: round; stroke-linejoin: round;" />
<circle cx="9.4996967" cy="17.5" r="1.75" style="fill: none; stroke: #000000; stroke-width: 1.5; stroke-linecap: round; stroke-linejoin: round; stroke-dasharray: none; stroke-opacity: 1;" />
<path d="M 18.499699,18.250002 A 1.2500015,1.2500015 0 0 1 17.249698,19.500003 1.2500015,1.2500015 0 0 1 15.999696,18.250002 1.2500015,1.2500015 0 0 1 17.249698,17 1.2500015,1.2500015 0 0 1 18.499699,18.250002 Z M 9.4996965,13.000001 V 9.5000008 h 3.4999995 l 1.5,4.0000002" style="fill: none; stroke: #000000; stroke-width: 0.999997px; stroke-linecap: round; stroke-linejoin: round; stroke-opacity: 1;" />
</svg>