<svg width="26" height="26" viewBox="0 0 26 26" xmlns="https://www.w3.org/2000/svg">
<path d="m 19.500013,8 a 0.50005,0.50005 0 0 0 -0.49414,0.4296875 l -0.5,3.5000005 a 0.50005,0.50005 0 0 0 0.14062,0.423828 l 1.5,1.5 A 0.50005,0.50005 0 0 0 20.500013,14 h 2 1 a 0.50005,0.50005 0 0 0 0,-1 h -0.66211 L 20.964853,8.3144531 A 0.50005,0.50005 0 0 0 20.500013,8 Z M 5.0000131,10 c -0.1326,2.5e-5 -0.25976,0.05272 -0.35352,0.146484 l -1.5,1.5 C 3.0527331,11.74024 3.0000331,11.8674 3.0000131,12 v 3.5 c 0,0 -0.007,0.603403 0.30273,1.222656 0.14695,0.293897 0.38674,0.597095 0.72266,0.833985 C 4.2499131,15.572086 5.9612131,14 8.0000131,14 c 2.1883999,0 3.9999999,1.811599 3.9999999,4 h 2 c 0,-0.349494 0.0482,-0.689267 0.13477,-1.013672 -0.5746,0.04121 -1.13907,-0.167353 -1.54883,-0.572266 -0.78085,-0.781013 -0.78085,-2.047111 0,-2.828124 L 14.005873,12.166016 14.000013,12 h -3.29297 L 8.8535331,10.146484 C 8.7597731,10.052716 8.6326131,10.000025 8.5000131,10 Z m 11.9999999,1 a 1.0001,1.0001 0 0 0 -0.70703,0.292969 l -3,3 a 1,1 0 0 0 0,1.414062 1,1 0 0 0 1.41406,0 L 17.414073,13 h 0.46875 c -0.29384,-0.328436 -0.42954,-0.772231 -0.36719,-1.210938 L 17.628923,11 Z" style="fill: #000000; stroke: none; stroke-linejoin: round;" />
<circle cx="18.000013" cy="18" r="2.25" style="fill: none; stroke: #000000; stroke-width: 1.5; stroke-linecap: round; stroke-linejoin: round; stroke-dasharray: none; stroke-opacity: 1;" />
<circle cx="8.0000134" cy="18" r="2.25" style="fill: none; stroke: #000000; stroke-width: 1.5; stroke-linecap: round; stroke-linejoin: round; stroke-dasharray: none; stroke-opacity: 1;" />
<path d="m 8.5000131,10 1,-2.5 h 4.9999999 m -1,4.5 V 7.5" style="fill: none; stroke: #000000; stroke-width: 1px; stroke-linecap: round; stroke-linejoin: round; stroke-opacity: 1;" />
</svg>