<svg width="26" height="26" viewBox="0 0 26 26" xmlns="https://www.w3.org/2000/svg">
<path d="M 20.5,3 C 19.86807,3 19.23799,3.3564814 19.05469,4.0664062 L 12.96484,4.5019531 A 0.50005,0.50005 0 0 0 12.58398,4.7226562 L 10.39844,8 H 13 a 1.50015,1.50015 0 0 1 1.42383,1.025391 L 15.5,12.253906 V 6.9101562 L 19.1582,6.1777344 19.75,12.5 c 0,0.999997 1.5,0.999997 1.5,0 L 22,4.5 C 22,3.500003 21.25,3 20.5,3 Z m -16,9 c 0,0 -0.0961,0.0057 -0.1582,0.02344 -0.062,0.01773 -0.13116,0.04772 -0.19727,0.0918 -0.13221,0.08814 -0.24948,0.227481 -0.3418,0.41211 C 3.61811,12.896593 3.5,13.458335 3.5,14.5 c 0,1.041665 0.11811,1.603401 0.30273,1.972656 0.0923,0.184629 0.20959,0.323967 0.3418,0.41211 0.0661,0.04407 0.13522,0.07407 0.19727,0.0918 C 4.40385,16.994287 4.5,17 4.5,17 H 15 c 0.27613,-2.8e-5 0.49997,-0.223869 0.5,-0.5 v -1 C 15.49997,15.223869 15.27613,15.000028 15,15 H 11.20703 L 8,12 Z m 17.03125,2.001953 a 0.50005,0.50005 0 0 0 -0.25391,0.05078 L 18.5,15.441406 17.72266,15.052734 a 0.50005,0.50005 0 0 0 -0.57618,0.800782 l 3,3 a 0.50005,0.50005 0 0 0 0.70704,0 l 2,-2 a 0.50005,0.50005 0 0 0 0.0937,-0.576172 l -1,-2 A 0.50005,0.50005 0 0 0 21.5312,14.001953 Z" style="fill: #000000; stroke: none; stroke-linejoin: round;" />
<path d="M 8.5,13 V 9.5 H 13 l 2,6 m 0,6 H 6 c -2.01915,-0.01153 -2,-3 0,-3 h 9 c 2,0 2,3 0,3 z" style="fill: none; stroke: #000000; stroke-width: 1px; stroke-linecap: round; stroke-linejoin: round; stroke-opacity: 1;" />
</svg>