<svg width="26" height="26" viewBox="0 0 26 26" xmlns="https://www.w3.org/2000/svg">
<path d="m 4,10 c -0.999999,0 -1,1 -1,1 v 3 c 0,0 1e-6,1 1,1 L 6,12.5 C 7.010989,11.004831 9.000002,11.000001 11,12 L 16.5,14.5 18,14 v -3 l -6,-1 z m 17,2.625 c -0.25,0 -0.5,0.125 -0.5,0.375 0,0 -1,4.000001 -1,5 0,0.999999 0.500002,2 2.5,2 h 2 c 0.5,0 0.816406,-0.578125 0,-1 L 23,18.5 21.5,13 c 0,-0.25 -0.25,-0.375 -0.5,-0.375 z m -1.964844,2.232422 -6.039062,1.859375 -5.431641,-0.464844 c -0.413282,-0.03606 -0.777339,0.270233 -0.8125,0.683594 -0.03606,0.413281 0.270234,0.777339 0.683594,0.8125 l 11.134765,0.951172 C 18.520973,18.459266 18.5,18.221645 18.5,18 c 0,-0.833331 0.270033,-1.951487 0.523438,-3.091797 0.0039,-0.01774 0.0078,-0.0331 0.01172,-0.05078 z" style="fill: #000000; stroke: none; stroke-width: 1px; stroke-linecap: butt; stroke-linejoin: miter; stroke-opacity: 1;" />
<path d="m 11.5,10.5 -1,-4 m -3,4 v -4 m -2,4 v -4 m -1,0 h 7 m 5.239698,12.804962 C 16.519336,19.429949 16.265942,19.5 16,19.5 H 6 C 5.4897603,19.5 5.0145115,19.240628 4.7384698,18.811506 4.4624279,18.382384 4.4234539,17.842368 4.6350147,17.378055 L 4.85,17 6.75,14 6.91787,13.776536 c 0.4627285,-0.59838 1.2234538,-0.884503 1.9658262,-0.739385 L 9.3,13.2 l 4.630945,2.18316" style="fill: none; stroke: #000000; stroke-width: 1px; stroke-linecap: round; stroke-linejoin: round; stroke-opacity: 1;" />
</svg>