<svg width="26" height="26" viewBox="0 0 26 26" xmlns="https://www.w3.org/2000/svg">
<circle cx="21.000019" cy="18" r="1.75" style="fill: none; stroke: #000000; stroke-width: 1.5; stroke-linecap: round; stroke-linejoin: round; stroke-dasharray: none; stroke-opacity: 1;" />
<circle cx="8.0000191" cy="18" r="1.75" style="fill: none; stroke: #000000; stroke-width: 1.5; stroke-linecap: round; stroke-linejoin: round; stroke-dasharray: none; stroke-opacity: 1;" />
<path d="m 5.0000188,6.0000001 v 1 L 11.000019,13 h 3 V 11 Z M 16.000019,12 v 2 H 5.5000188 c -0.27613,2.8e-5 -0.49997,0.223869 -0.5,0.5 v 1 c 2e-5,0.1326 0.0527,0.25976 0.14648,0.353516 l 0.0606,0.06055 C 5.8493688,15.06093 6.8661388,14.5 8.0000188,14.5 c 1.91226,0 3.5000002,1.587741 3.5000002,3.5 0,0.170173 -0.0168,0.335857 -0.041,0.5 h 6.08203 c -0.0243,-0.164143 -0.041,-0.329827 -0.041,-0.5 0,-1.912259 1.58774,-3.5 3.5,-3.5 1.17083,0 2.2163,0.599167 2.85352,1.5 h 0.14645 v -3 l -3,-1 z" style="fill: #000000; stroke: none; stroke-linejoin: round;" />
<path d="m 4.5000188,7.5000001 v 1 c 0,1 1.9779,1.013864 2,2.4999999 0,0 0,1.5 -1.5,1.5 -1.5,0 -1.5,-1.5 -1.5,-1.5 m 2,-4.499998 c 0,0.5522859 -0.44772,1.000002 -1,1.000002 -0.55228,0 -1,-0.4477161 -1,-1.000002 0,-0.5522859 0.44772,-1.000002 1,-1.000002 0.55228,0 1,0.4477161 1,1.000002 z M 15.500019,14 V 8.5000001 h 3.5 L 20.500019,12" style="fill: none; stroke: #000000; stroke-width: 1px; stroke-linecap: round; stroke-linejoin: round; stroke-opacity: 1;" />
</svg>