<svg width="26" height="26" viewBox="0 0 26 26" xmlns="https://www.w3.org/2000/svg">
<path d="m 4.5000003,12 c -0.276131,2.8e-5 -0.499972,0.223869 -0.5,0.5 V 14 c -1.64e-4,0.159791 0.07605,0.310039 0.205078,0.404297 l 0.310547,0.226562 C 5.0822643,14.235101 5.7666633,14 6.5,14 c 1.912265,0 3.5,1.587735 3.5,3.5 0,0.338196 -0.05024,0.665656 -0.142578,0.976562 0.04614,0.01467 0.09417,0.02257 0.142578,0.02344 h 3.5 c 0.167172,-1.3e-5 0.32328,-0.08356 0.416016,-0.222656 L 14.767578,17 H 19 c 0.276142,0 0.5,-0.223858 0.5,-0.5 C 19.5,16.223858 19.276142,16 19,16 H 15 V 13 H 10.75 L 9.900391,12.199219 C 9.805713,12.073506 9.657377,11.9997 9.5,12 Z" style="fill: #000000; stroke: none; stroke-linecap: round; stroke-linejoin: round;" />
<circle cx="6.5" cy="17.5" r="1.75" style="fill: none; stroke: #000000; stroke-width: 1.5; stroke-linecap: round; stroke-linejoin: round; stroke-dasharray: none; stroke-opacity: 1;" />
<path d="m 18.5,13 a 3.5,3.5 0 0 0 -3.158203,2 H 19 A 1.5,1.5 0 0 1 20.5,16.5 1.5,1.5 0 0 1 19,18 H 15.341797 A 3.5,3.5 0 0 0 18.5,20 3.5,3.5 0 0 0 22,16.5 3.5,3.5 0 0 0 18.5,13 Z" style="fill: #000000; stroke: none; stroke-width: 1.5; stroke-linecap: round; stroke-linejoin: round; stroke-dasharray: none; stroke-opacity: 1;" />
<path d="m 14.5,13.5 v -5 m -5,4 1,-4 h 5" style="fill: none; stroke: #000000; stroke-width: 1px; stroke-linecap: round; stroke-linejoin: round; stroke-opacity: 1;" />
</svg>