<svg width="26" height="26" viewBox="0 0 26 26" xmlns="https://www.w3.org/2000/svg">
<path d="M 13,6 C 6.20712,6 2.075166,12.736328 2.075166,12.736328 c -0.100221,0.161496 -0.100221,0.365848 0,0.527344 C 2.075166,13.263672 6.211609,20 13,20 13.694924,20 14.360143,19.92751 14.997874,19.800781 14.690407,19.44782 14.49987,18.990918 14.49987,18.5 V 17.744141 C 14.015894,17.905442 13.510081,17.991728 13,18 10.238744,17.999747 8.000433,15.761242 8.000433,13 c 0,-2.761242 2.238311,-4.999747 4.999567,-5 2.761256,2.53e-4 4.999567,2.238758 4.999567,5 -0.0055,0.07372 -0.01269,0.147303 -0.02148,0.220703 C 18.348632,12.783069 18.89814,12.5 19.499437,12.5 h 0.999913 c 1.081958,0 1.999827,0.917949 1.999827,2 v 0.619141 c 0.922125,-1.049093 1.425657,-1.855469 1.425657,-1.855469 0.100221,-0.161496 0.100221,-0.365848 0,-0.527344 C 23.924834,12.736328 19.79288,6 13,6 Z m 0,5 c -1.104502,1.01e-4 -1.999827,0.895503 -1.999827,2 0,1.104497 0.895325,1.999899 1.999827,2 1.104502,-1.01e-4 1.999827,-0.895503 1.999827,-2 0,-1.104497 -0.895325,-1.999899 -1.999827,-2 z m 6.500043,3 C 19.223067,14 19,14.223 19,14.5 l 6.06e-4,2.5 H 16.500303 C 16.223327,17 16,17.223 16,17.5 v 1 c 0,0.277 0.223327,0.5 0.500303,0.5 h 2.500303 L 19,21.5 c -6.7e-5,0.277 0.223068,0.5 0.500043,0.5 h 0.999913 C 20.776932,22 21,21.777 21,21.5 l 6.06e-4,-2.5 h 2.49909 C 23.776672,19 24,18.777 24,18.5 v -1 C 24,17.223 23.776672,17 23.499696,17 h -2.49909 L 21,14.5 C 20.999933,14.223 20.776932,14 20.499956,14 Z" style="fill: #000000; fill-opacity: 1; stroke: none; stroke-width: 2; stroke-linecap: butt; stroke-linejoin: round; stroke-miterlimit: 4; stroke-dasharray: none; stroke-dashoffset: 0; stroke-opacity: 1;" />
</svg>