<svg width="26" height="26" viewBox="0 0 26 26" xmlns="https://www.w3.org/2000/svg">
<path d="m 22.64258,14.74609 c -0.13279,-0.004 -0.26181,0.0438 -0.33985,0.15821 l -3.21679,3.71875 -1.38867,-1.38868 c -0.19587,-0.19585 -0.51117,-0.19587 -0.70704,0 l -0.70703,0.70704 c -0.19587,0.19586 -0.19587,0.51116 0,0.70703 l 2.44922,2.44922 c 0.19587,0.19586 0.51116,0.19586 0.70703,0 l 4.27735,-4.77735 c 0.19587,-0.19587 0.19587,-0.51116 0,-0.70703 L 23.00977,14.9043 c -0.0979,-0.0979 -0.23441,-0.15421 -0.36719,-0.15821 z M 13,6 C 6.2071135,6 2.0751656,12.736328 2.0751656,12.736328 a 0.50005242,0.50005 0 0 0 0,0.527344 C 2.0751656,13.263672 6.2116021,20 13,20 c 0.790036,0 1.541781,-0.09462 2.257616,-0.255859 l -0.03516,-0.03516 c -0.539463,-0.53951 -0.696014,-1.343235 -0.474568,-2.039062 A 5.0000242,5 0 0 1 13,18 5.0000242,5 0 0 1 8.0004333,13 5.0000242,5 0 0 1 13,8 a 5.0000242,5 0 0 1 4.999567,5 5.0000242,5 0 0 1 -0.749936,2.603516 c 0.546458,-0.02456 1.102051,0.164687 1.507682,0.570312 l 0.248025,0.248047 2.126769,-2.458984 c -0.02399,0.03049 -0.04611,0.06308 -0.06835,0.0957 l 0.103507,-0.134766 c 0.410895,-0.490799 1.039886,-0.692181 1.519399,-0.677734 0.378352,0.0114 0.726266,0.118271 1.037019,0.320312 0.131539,-0.191303 0.201155,-0.302734 0.201155,-0.302734 a 0.50005242,0.50005 0 0 0 0,-0.527344 C 23.924834,12.736328 19.792887,6 13,6 Z m 0,5 A 2.0000097,2 0 0 0 11.000173,13 2.0000097,2 0 0 0 13,15 2.0000097,2 0 0 0 14.999826,13 2.0000097,2 0 0 0 13,11 Z" style="fill: #000000; stroke: none; stroke-width: 3; stroke-linejoin: round;" />
</svg>