<svg width="26" height="26" viewBox="0 0 26 26" xmlns="https://www.w3.org/2000/svg">
<path d="M 13,6 C 6.20712,6 2.075,12.73633 2.075,12.73633 c -0.100221,0.16149 -0.100221,0.36585 0,0.52734 0,0 3.934706,6.4024 10.425,6.7207 V 18 c 0,-0.0165 0.0016,-0.0325 0.002,-0.0488 C 9.95527,17.69625 8.012267,15.55937 8,13 c 0,-2.76141 2.238572,-4.99999 5,-5 1.726582,10e-4 3.330337,0.89323 4.242188,2.35937 0.421284,-0.0948 0.844851,-0.13867 1.257812,-0.13867 1.089231,0 2.257212,0.29986 3.242188,1.05664 0.836824,0.64296 1.454728,1.60034 1.671874,2.71875 0.330376,-0.44481 0.510938,-0.73242 0.510938,-0.73242 0.100221,-0.16149 0.100221,-0.36585 0,-0.52734 C 23.925,12.73633 19.79288,6 13,6 Z m 0,5 c -1.104571,0 -2,0.89543 -2,2 0,1.10457 0.895429,1.99999 2,2 0.169386,-0.005 0.337399,-0.0323 0.5,-0.0801 v -0.0391 c 0,-1.17788 0.438817,-2.23501 1.138672,-3.02539 C 14.264901,11.31985 13.653142,11.00048 13,11 Z m 2,6 c -0.553998,0 -1,0.446 -1,1 v 4 c 0,0.554 0.446002,1 1,1 h 7 c 0.553999,0 1,-0.446 1,-1 v -4 c 0,-0.554 -0.446001,-1 -1,-1 z m 3.5,2 c 0.276142,0 0.5,0.22386 0.5,0.5 l 0.5,1 C 19.54554,20.77323 19.277,21 19,21 h -1 c -0.276999,0 -0.54554,-0.22677 -0.5,-0.5 l 0.5,-1 C 18,19.22386 18.223858,19 18.5,19 Z" style="fill: #000000; fill-opacity: 1; stroke: #1e4177; stroke-width: 0; stroke-linecap: round; stroke-linejoin: round; stroke-miterlimit: 4; stroke-dasharray: none; stroke-dashoffset: 0; stroke-opacity: 1;" />
<path d="m 16,17.48551 v -2.60478 c 0,-2.88097 5,-2.88097 5,0 v 2.60478" style="fill: none; stroke: #000000; stroke-width: 2; stroke-linecap: butt; stroke-linejoin: round; stroke-miterlimit: 4; stroke-dasharray: none; stroke-opacity: 1;" />
</svg>