<svg width="26" height="26" viewBox="0 0 26 26" xmlns="https://www.w3.org/2000/svg">
<path d="M 13,6 C 6.206538,6 2.075,12.73633 2.075,12.73633 c -0.10023,0.16149 -0.10023,0.36585 0,0.52734 0,0 3.93415,6.4024 10.425,6.7207 V 18 c 0,-0.0165 0.0016,-0.0325 0.002,-0.0488 C 9.955204,17.69606 8.012248,15.55923 8,13 c 0,-2.76125 2.238502,-4.99975 5,-5 1.68966,5.1e-4 3.264787,0.85419 4.1875,2.26953 0.513639,-0.14989 1.049647,-0.22769 1.587891,-0.22461 0.377119,0.002 0.763299,0.0418 1.148437,0.12305 1.020988,0.21546 2.030044,0.72865 2.869141,1.55273 0.592278,0.58061 0.601028,1.53165 0.01953,2.12305 L 21.410156,15.26953 21.138672,15.5 H 22 c 0.05004,0 0.09904,0.005 0.148438,0.008 1.150949,-1.23541 1.776562,-2.24414 1.776562,-2.24414 0.100229,-0.1615 0.100229,-0.36585 0,-0.52734 C 23.925,12.73633 19.793462,6 13,6 Z m 0,5 c -1.104599,10e-5 -2,0.8955 -2,2 0,1.1045 0.895401,1.9999 2,2 0.169386,-0.005 0.337399,-0.0323 0.5,-0.0801 v -0.0391 c 0,-1.18974 0.44102,-2.21936 1.144531,-3.01953 C 14.270875,11.32183 13.656302,10.99994 13,11 Z m 2,6 c -0.553999,0 -1,0.446 -1,1 v 4 c 0,0.554 0.446001,1 1,1 h 7 c 0.553999,0 1,-0.446 1,-1 v -4 c 0,-0.554 -0.446001,-1 -1,-1 z m 3.5,2 c 0.276142,0 0.5,0.22386 0.5,0.5 l 0.5,1 C 19.54554,20.77323 19.277,21 19,21 h -1 c -0.277,0 -0.54554,-0.22677 -0.5,-0.5 l 0.5,-1 C 18,19.22386 18.223858,19 18.5,19 Z" style="fill: #000000; fill-opacity: 1; stroke: #1e4177; stroke-width: 0; stroke-linecap: round; stroke-linejoin: round; stroke-miterlimit: 4; stroke-dasharray: none; stroke-dashoffset: 0; stroke-opacity: 1;" />
<path d="m 16,17.48551 v -2.60478 c 0,-2.073 3,-3.38097 5.040796,-1.37671" style="fill: none; stroke: #000000; stroke-width: 2; stroke-linecap: butt; stroke-linejoin: round; stroke-miterlimit: 4; stroke-dasharray: none; stroke-opacity: 1;" />
</svg>