<svg width="26" height="26" viewBox="0 0 26 26" xmlns="https://www.w3.org/2000/svg">
<path d="M 13,6 C 6.207704,6 2.075159,12.736328 2.075159,12.736328 a 0.50000939,0.50005 0 0 0 0,0.527344 C 2.075159,13.263672 6.212193,20 13,20 c 0.727595,0 1.424852,-0.07859 2.089664,-0.216797 -0.0557,-0.08065 -0.08984,-0.177341 -0.08984,-0.283203 V 17.574219 A 4.999594,5 0 0 1 13,18 4.999594,5 0 0 1 8.00043,13 4.999594,5 0 0 1 13,8 a 4.999594,5 0 0 1 4.999569,5 4.999594,5 0 0 1 -1.009679,3 h 4.687097 c 1.456287,-1.448926 2.247853,-2.736328 2.247853,-2.736328 a 0.50000939,0.50005 0 0 0 0,-0.527344 C 23.92484,12.736328 19.792295,6 13,6 Z m 0,5 A 1.9998376,2 0 0 0 11.000172,13 1.9998376,2 0 0 0 13,15 1.9998376,2 0 0 0 14.999827,13 1.9998376,2 0 0 0 13,11 Z m 3.499698,6 c -0.276976,0 -0.499957,0.223 -0.499957,0.5 v 1 c 0,0.277 0.222981,0.5 0.499957,0.5 h 6.999398 c 0.276976,0 0.499957,-0.223 0.499957,-0.5 v -1 c 0,-0.277 -0.222981,-0.5 -0.499957,-0.5 z" style="fill: #000000; fill-opacity: 1; stroke: none; stroke-width: 0.999997px; stroke-linecap: butt; stroke-linejoin: round; stroke-miterlimit: 4; stroke-dasharray: none; stroke-dashoffset: 0; stroke-opacity: 1;" />
</svg>