<svg width="26" height="26" viewBox="0 0 26 26" xmlns="https://www.w3.org/2000/svg">
<path d="M 13,6 C 6.207705,6 2.0751591,12.736328 2.0751591,12.736328 a 0.50000944,0.50005 0 0 0 0,0.527344 C 2.0751591,13.263672 6.212192,20 13,20 c 0.775575,0 1.51446,-0.0903 2.218559,-0.246094 0.06948,-0.386933 0.247774,-0.755581 0.539016,-1.046875 L 16.464546,18 15.757575,17.292969 c -0.02685,-0.02685 -0.05121,-0.05587 -0.07616,-0.08399 A 4.9995945,5 0 0 1 13,18 4.9995945,5 0 0 1 8.00043,13 4.9995945,5 0 0 1 13,8 a 4.9995945,5 0 0 1 4.99957,5 4.9995945,5 0 0 1 -0.01758,0.189453 c 0.480639,0.02394 0.953542,0.211407 1.310434,0.568359 l 0.706972,0.707032 0.70697,-0.707032 c 0.764973,-0.765105 2.062909,-0.765105 2.827882,0 l 0.03125,0.03125 c 0.23029,-0.321339 0.359344,-0.52539 0.359344,-0.52539 a 0.50000944,0.50005 0 0 0 0,-0.527344 C 23.924843,12.736328 19.792297,6 13,6 Z m 0,5 A 1.9998378,2 0 0 0 11.000172,13 1.9998378,2 0 0 0 13,15 1.9998378,2 0 0 0 14.999828,13 1.9998378,2 0 0 0 13,11 Z m 4.878487,3.671875 c -0.127797,0 -0.255563,0.04855 -0.353485,0.146484 l -0.706971,0.707032 c -0.195852,0.195869 -0.195852,0.511161 0,0.707031 L 18.585458,18 16.818031,19.767578 c -0.195852,0.19587 -0.195852,0.511172 0,0.707031 l 0.706971,0.707032 c 0.195842,0.195869 0.511117,0.195869 0.70697,0 l 1.767426,-1.767579 1.767426,1.767579 c 0.195853,0.195869 0.511128,0.195869 0.70697,0 l 0.706971,-0.707032 c 0.195852,-0.195859 0.195852,-0.511161 0,-0.707031 L 21.413338,18 23.180765,16.232422 c 0.195852,-0.19587 0.195852,-0.511172 0,-0.707031 l -0.706971,-0.707032 c -0.195852,-0.195869 -0.511117,-0.195869 -0.70697,0 l -1.767426,1.767579 -1.767426,-1.767579 c -0.09792,-0.09793 -0.225687,-0.146484 -0.353485,-0.146484 z" style="fill: #000000; fill-opacity: 1; stroke: none; stroke-width: 0.999997px; stroke-linecap: butt; stroke-linejoin: round; stroke-miterlimit: 4; stroke-dasharray: none; stroke-dashoffset: 0; stroke-opacity: 1;" />
</svg>