<svg width="26" height="26" viewBox="0 0 26 26" xmlns="https://www.w3.org/2000/svg">
<path d="m 4,6 v 3 h 0.5 l 1,-2 H 9 l -0.867187,3.90625 c 0.07905,-0.17429 0.187538,-0.328164 0.316406,-0.457031 0.247583,-0.247584 0.583757,-0.426539 0.990234,-0.447266 0.282466,-0.0144 0.586318,0.07124 0.84375,0.226563 L 11,7 h 3.5 l 1,2 H 16 V 6 Z m 5.490234,5 c -0.37935,0.01934 -0.693491,0.516446 -0.326171,0.869141 l 2.224609,3.046875 -1.232422,1.232422 C 9.84214,16.462767 10.065396,16.99983 10.509766,17 h 3.992187 C 14.777493,16.99997 14.99997,16.777503 15,16.501953 v -3.992187 c -1.7e-4,-0.44438 -0.537233,-0.667626 -0.851562,-0.353516 l -1.232422,1.232422 -3.046875,-2.22461 C 9.751576,11.041623 9.616685,10.993552 9.490234,11 Z M 8.001953,11.488281 7,16 5,16.5 V 17 H 9.097656 C 8.99315,16.698518 8.989827,16.347179 9.095656,16.023438 L 9,16 9.453125,13.960938 8.373047,12.484375 c 0.0312,0.03678 0.0633,0.07248 0.09766,0.105469 l -0.115234,-0.13086 0.0078,0.01367 C 8.135228,12.198057 7.99815,11.830616 8.001953,11.488281 Z M 16,12 v 8 l -2,0.5 V 21 h 6 V 20.5 L 18,20 v -7 h 2.5 l 1,2 H 22 v -3 z" style="fill: #000000; fill-opacity: 1; stroke: none; stroke-width: 1px; stroke-linecap: butt; stroke-linejoin: miter; stroke-miterlimit: 4; stroke-dasharray: none; stroke-dashoffset: 0; stroke-opacity: 1;" />
</svg>