<svg width="26" height="26" viewBox="0 0 26 26" xmlns="https://www.w3.org/2000/svg">
<path d="m 10,6 v 3 h 0.5 l 1,-2 H 15 v 3.089844 c 0.577153,0.209423 0.99993,0.766467 1,1.408203 v 3.992187 c -2.39e-4,0.625096 -0.415816,1.173541 -0.925781,1.384766 -0.509967,0.211225 -1.19065,0.117635 -1.632813,-0.324219 L 13.3125,16.421875 13,16.500005 v 0.5 h 6 v -0.5 l -2,-0.5 v -9 h 3.5 l 1,2 H 22 v -3 z m 0.509766,5 c -0.44438,1.7e-4 -0.6676257,0.537233 -0.353516,0.851562 l 1.232422,1.232422 -2.2246095,3.046875 c -0.4897595,0.47026 0.2348186,1.194838 0.7050781,0.705079 l 3.0468754,-2.22461 1.232422,1.232422 C 14.462767,16.15786 14.99983,15.9346 15,15.490234 V 11.498047 C 14.99997,11.222507 14.777503,11.00003 14.501953,11 Z M 4,12 v 3 h 0.5 l 1,-2 H 8 L 6,20 4,20.5 V 21 h 6 V 20.5 L 8,20 8.6503906,17.722656 C 8.5777069,17.670739 8.5111145,17.612677 8.4492188,17.550781 8.2016353,17.303197 8.0226801,16.967023 8.0019531,16.560547 7.9838174,16.204879 8.1244298,15.814945 8.3632812,15.527344 l -0.00781,0.01367 0.1152343,-0.13086 c -0.034352,0.03299 -0.066456,0.06869 -0.097656,0.105469 L 9.8632812,13.476562 9.9765625,13.085938 9.4492188,12.558594 C 9.2881012,12.397363 9.1741274,12.204819 9.1035156,12 Z" style="fill: #000000; fill-opacity: 1; stroke: none; stroke-width: 1px; stroke-linecap: butt; stroke-linejoin: miter; stroke-miterlimit: 4; stroke-dasharray: none; stroke-dashoffset: 0; stroke-opacity: 1;" />
</svg>