<svg width="26" height="26" viewBox="0 0 26 26" xmlns="https://www.w3.org/2000/svg">
<path d="M 13.5,6 V 19" style="fill: none; stroke: #000000; stroke-width: 1px; stroke-linecap: butt; stroke-linejoin: miter; stroke-dasharray: 1, 1; stroke-dashoffset: 0; stroke-opacity: 1;" />
<path d="M 3,17 V 16 H 4.5 V 9 H 3 V 8 H 7 V 9 H 6 v 3 L 9,9 H 8 V 8 h 3 v 1 h -1 l -3,3 4,4 h 1 v 1 H 8 V 16 H 9 L 6,13 v 3 h 1 v 1 z" style="fill: #000000; fill-opacity: 1; stroke: none; stroke-width: 1px; stroke-linecap: butt; stroke-linejoin: miter; stroke-miterlimit: 4; stroke-dasharray: none; stroke-dashoffset: 0; stroke-opacity: 1;" />
<path d="m 16,17 v -1 h 1 V 9 H 16 V 8 h 7 v 2 H 22 V 9 h -3.5 v 3 H 21 v -1 h 1 v 3 h -1 v -1 h -2.5 v 3 H 22 v -1 h 1 v 2 z" style="fill: #000000; fill-opacity: 1; stroke: none; stroke-width: 1px; stroke-linecap: butt; stroke-linejoin: miter; stroke-miterlimit: 4; stroke-dasharray: none; stroke-dashoffset: 0; stroke-opacity: 1;" />
<path d="m 16.993223,21.000549 v -1.49977 c 1.71e-4,-0.44525 0.544021,-0.66819 0.859171,-0.35346 l 2.50116,1.99962 c 0.19527,0.19523 0.19527,0.51169 0,0.70692 l -2.50116,1.99962 c -0.0957,0.0957 -0.226141,0.14853 -0.3615,0.14646 -0.2732,-0.004 -0.49768,-0.22687 -0.497671,-0.49994 v -1.49976 h -6.98644 v 1.49976 c 10e-6,0.27307 -0.22447,0.49564 -0.49767,0.49994 -0.13537,0.002 -0.26579,-0.0508 -0.3615,-0.14646 l -2.5011605,-1.99962 c -0.19527,-0.19523 -0.19527,-0.51169 0,-0.70692 l 2.5011605,-1.99962 c 0.31515,-0.31473 0.859,-0.0918 0.85917,0.35346 v 1.49977 z" style="fill: #000000; fill-opacity: 1; stroke: none; stroke-width: 1px; stroke-linecap: butt; stroke-linejoin: round; stroke-miterlimit: 4; stroke-dasharray: none; stroke-dashoffset: 0; stroke-opacity: 1;" />
</svg>