<svg width="26" height="26" viewBox="0 0 26 26" xmlns="https://www.w3.org/2000/svg">
<path d="M 12.5 9 A 4.5 4.5 0 0 0 8 13.5 A 4.5 4.5 0 0 0 12.5 18 A 4.5 4.5 0 0 0 17 13.5 A 4.5 4.5 0 0 0 12.5 9 z M 10.5 12.875 L 14.5 12.875 A 0.625 0.625 0 0 1 15.125 13.5 A 0.625 0.625 0 0 1 14.5 14.125 L 10.5 14.125 A 0.625 0.625 0 0 1 9.875 13.5 A 0.625 0.625 0 0 1 10.5 12.875 z " style="opacity: 1; fill: #000000; fill-opacity: 1; stroke: none; stroke-width: 1.25; stroke-linecap: round; stroke-linejoin: miter; stroke-miterlimit: 4; stroke-dasharray: none; stroke-dashoffset: 0; stroke-opacity: 1;" />
<path d="m 8.2572614,17.742739 -1.41421,1.414213 M 18.156752,7.8432454 16.742542,9.2574584 M 12.499901,19.500098 v 2 m 0,-15.9999986 v 2 m 4.242641,10.2426396 1.41421,1.414213 M 6.8430514,7.8432454 l 1.41421,1.414213 M 18.499902,13.500099 h 2 m -16.0000004,0 h 1.9999998" style="opacity: 1; fill: none; fill-opacity: 1; stroke: #000000; stroke-width: 1.25; stroke-linecap: round; stroke-linejoin: miter; stroke-miterlimit: 4; stroke-dasharray: none; stroke-dashoffset: 0; stroke-opacity: 1;" />
</svg>