<svg width="26" height="26" viewBox="0 0 26 26" xmlns="https://www.w3.org/2000/svg">
<path d="m 18.499999,20.499999 h 3 m -13,0 h 3 m 7,-5 h 3 m -13,0 h 3 m 7,-5 h 3 m -13,0 h 3 m 7,-5 h 3 m -13,0 h 3" style="fill: none; stroke: #000000; stroke-width: 1px; stroke-linecap: round; stroke-linejoin: miter; stroke-opacity: 1;" />
<rect x="4.499999" y="4.499999" width="2.0000031" height="2.0000041" rx="0" ry="0" style="fill: none; stroke: #000000; stroke-width: 0.999997; stroke-linecap: round; stroke-linejoin: round; stroke-dasharray: none; stroke-opacity: 1;" />
<rect x="4.499999" y="9.499999" width="2.0000031" height="2.0000041" rx="0" ry="0" style="fill: none; stroke: #000000; stroke-width: 0.999997; stroke-linecap: round; stroke-linejoin: round; stroke-dasharray: none; stroke-opacity: 1;" />
<rect x="4.499999" y="14.499999" width="2.0000031" height="2.0000041" rx="0" ry="0" style="fill: none; stroke: #000000; stroke-width: 0.999997; stroke-linecap: round; stroke-linejoin: round; stroke-dasharray: none; stroke-opacity: 1;" />
<rect x="4.499999" y="19.499998" width="2.0000031" height="2.0000041" rx="0" ry="0" style="fill: none; stroke: #000000; stroke-width: 0.999997; stroke-linecap: round; stroke-linejoin: round; stroke-dasharray: none; stroke-opacity: 1;" />
<rect x="14.499999" y="4.499999" width="2.0000031" height="2.0000041" rx="0" ry="0" style="fill: none; stroke: #000000; stroke-width: 0.999997; stroke-linecap: round; stroke-linejoin: round; stroke-dasharray: none; stroke-opacity: 1;" />
<rect x="14.499999" y="9.499999" width="2.0000031" height="2.0000041" rx="0" ry="0" style="fill: none; stroke: #000000; stroke-width: 0.999997; stroke-linecap: round; stroke-linejoin: round; stroke-dasharray: none; stroke-opacity: 1;" />
<rect x="14.499999" y="14.499999" width="2.0000031" height="2.0000041" rx="0" ry="0" style="fill: none; stroke: #000000; stroke-width: 0.999997; stroke-linecap: round; stroke-linejoin: round; stroke-dasharray: none; stroke-opacity: 1;" />
<rect x="14.499999" y="19.499998" width="2.0000031" height="2.0000041" rx="0" ry="0" style="fill: none; stroke: #000000; stroke-width: 0.999997; stroke-linecap: round; stroke-linejoin: round; stroke-dasharray: none; stroke-opacity: 1;" />
</svg>