<svg width="26" height="26" viewBox="0 0 26 26" xmlns="https://www.w3.org/2000/svg">
<rect x="4.499999" y="5.5" width="3.000005" height="3.0000029" rx="0" ry="0" style="fill: none; stroke: #000000; stroke-width: 0.999997; stroke-linecap: round; stroke-linejoin: round; stroke-dasharray: none; stroke-opacity: 1;" />
<rect x="4.499999" y="11.5" width="3.000005" height="3.0000029" rx="0" ry="0" style="fill: none; stroke: #000000; stroke-width: 0.999997; stroke-linecap: round; stroke-linejoin: round; stroke-dasharray: none; stroke-opacity: 1;" />
<rect x="4.499999" y="17.5" width="3.000005" height="3.0000029" rx="0" ry="0" style="fill: none; stroke: #000000; stroke-width: 0.999997; stroke-linecap: round; stroke-linejoin: round; stroke-dasharray: none; stroke-opacity: 1;" />
<rect x="14.499999" y="5.5" width="3.000005" height="3.0000029" rx="0" ry="0" style="fill: none; stroke: #000000; stroke-width: 0.999997; stroke-linecap: round; stroke-linejoin: round; stroke-dasharray: none; stroke-opacity: 1;" />
<rect x="14.499999" y="11.5" width="3.000005" height="3.0000029" rx="0" ry="0" style="fill: none; stroke: #000000; stroke-width: 0.999997; stroke-linecap: round; stroke-linejoin: round; stroke-dasharray: none; stroke-opacity: 1;" />
<rect x="14.499999" y="17.5" width="3.000005" height="3.0000029" rx="0" ry="0" style="fill: none; stroke: #000000; stroke-width: 0.999997; stroke-linecap: round; stroke-linejoin: round; stroke-dasharray: none; stroke-opacity: 1;" />
<path d="m 19.499999,19.5 h 2 m -2,-2 h 3 m -3,-4 h 2 m -2,-2 h 3 m -3,-4 h 2 m -2,-2 h 3 m -13,14 h 2 m -2,-2 h 3 m -3,-4 h 2 m -2,-2 h 3 m -3,-4 h 2 m -2,-2 h 3" style="fill: none; stroke: #000000; stroke-width: 1px; stroke-linecap: round; stroke-linejoin: miter; stroke-opacity: 1;" />
</svg>