<svg width="26" height="26" viewBox="0 0 26 26" xmlns="https://www.w3.org/2000/svg">
<path d="M 9.5,3 C 6.68805,3.088388 8.49997,5.9999925 2,4.5 2.35731,5.3337355 2.77197,6.079584 3.20898,6.7363281 3.79129,6.0914168 4.47054,5.6423807 5.16406,5.5332031 4.4509,5.6794327 3.89268,6.3056779 3.47461,7.1171875 3.69833,7.4288424 3.92473,7.716833 4.15234,7.9804688 4.8793,6.5948533 6.11808,5.5551653 7.37695,5.5039062 6.02423,5.5769172 5.1883,7.1024243 4.78516,8.6542969 5.08125,8.9421695 5.36932,9.1875072 5.64062,9.3847656 6.09484,7.5407095 7.61852,6.1607153 9.20898,6.0195312 7.6012,6.2199617 6.76644,8.1842944 6.55273,9.9023438 6.72281,9.9657228 6.87311,9.9999998 7,9.9999998 l 3.70117,-3.15625 C 10.40993,6.456141 10.25169,5.9848272 10.25,5.4999998 10.25033,4.954482 10.44884,4.4276633 10.80859,4.0175779 10.35912,3.5789163 10.12174,2.9999998 9.5,3 Z M 16,3 C 15.24948,3 15.06172,3.8440477 14.38086,4.265625 14.6216,4.6323043 14.74991,5.0613556 14.75,5.5 14.748,5.9966724 14.58191,6.4787578 14.27734,6.8710938 L 18.5,10 C 18.62689,10 18.77719,9.965723 18.94727,9.902344 18.73356,8.1842946 17.8988,6.2199619 16.29102,6.0195314 17.88147,6.1607155 19.40516,7.5407097 19.85937,9.3847658 20.13068,9.1875074 20.41875,8.9421697 20.71484,8.6542971 20.31169,7.1024245 19.47577,5.5769179 18.12305,5.5039064 19.38192,5.5551654 20.6207,6.5948535 21.34766,7.980469 21.57527,7.7168332 21.80167,7.4288426 22.02539,7.1171877 21.60732,6.3056781 21.0491,5.6794329 20.33594,5.5332033 21.02946,5.6423809 21.70871,6.091417 22.29102,6.7363283 22.72803,6.079584 23.14268,5.3337355 23.5,4.5 17.00003,5.9999925 18.81195,3.0883878 16,3 Z M 12.5,4 C 11.67157,4 11,4.6715729 11,5.5 c 10e-4,0.6399042 0.40833,1.2085475 1.01367,1.4160156 L 12.25,24 h 0.5 L 12.98633,6.9160156 C 13.59167,6.7085475 13.99874,6.1399042 14,5.5 14,4.6715729 13.32843,4 12.5,4 Z M 10.51172,7.5351562 C 10.38938,7.5367962 10.21875,7.6718762 10,8 9,9.499994 8,9.500006 8,11 c 0,1.654917 1.68508,2.174746 3.45703,2.484375 l -0.0352,-1.267578 C 10.61429,12.091715 9.90755,11.907555 9.5,11.5 9,11.000001 9,10.999996 10,10 10.77261,9.2338168 10.94863,7.5292848 10.51172,7.5351562 Z m 3.97656,0 C 14.05137,7.5292862 14.22739,9.2338168 15,10 c 1,0.999996 1,1.000001 0.5,1.5 -0.20553,0.205529 -0.48708,0.353334 -0.81836,0.466797 0.48034,0.130134 0.94483,0.314371 1.36328,0.605469 0.0256,0.01782 0.0491,0.03783 0.0742,0.05664 C 16.65619,12.258857 17,11.745131 17,11 17,9.500006 16,9.499994 15,8 14.78125,7.6718762 14.61062,7.5368003 14.48828,7.5351562 Z m -0.91797,4.9667968 -0.0371,1.318359 c 1.12564,0.204078 1.97731,0.486225 1.9668,1.179688 0,0.892159 -0.8924,1.21093 -2.03906,1.388672 l -0.0293,1.041016 C 15.02596,17.156163 16.5,16.605292 16.5,15 c 0,-1.746982 -1.37053,-2.247616 -2.92969,-2.498047 z M 8.98242,13.550781 C 8.68103,13.903525 8.5,14.369546 8.5,15 c 0,0.627912 0.2279,1.093065 0.59766,1.445312 0.0687,-0.0336 0.13692,-0.06844 0.20703,-0.09766 0.30885,-0.12868 0.63342,-0.222545 0.96679,-0.294918 C 9.79979,15.836614 9.5,15.514981 9.5,15 9.493,14.532411 9.87628,14.252825 10.4707,14.056641 9.95428,13.937319 9.4492,13.778855 8.98242,13.550781 Z m 2.5625,3.064453 C 9.95966,16.804575 8.5,17.130792 8.5,18.5 c 0,1.29042 1.59765,1.514676 3.14453,1.705078 l -0.0195,-0.720703 C 10.47035,19.300111 9.5,19.101034 9.5,18.5 c 0,-0.540211 0.91234,-0.690482 2.07422,-0.826172 z m 4.4082,0.740235 c -0.057,0.03782 -0.11505,0.07384 -0.17382,0.107422 -0.32092,0.18338 -0.66419,0.321534 -1.01758,0.43164 C 15.21414,18.018597 15.5,18.19831 15.5,18.5 c 0,0.41458 -0.46559,0.635612 -1.12891,0.794922 0.18055,0.06442 0.3569,0.137434 0.52735,0.222656 0.16142,0.08071 0.32008,0.18212 0.46875,0.298828 C 16.03625,19.578513 16.5,19.194659 16.5,18.5 c 0,-0.512618 -0.20795,-0.876495 -0.54688,-1.144531 z m -2.58593,2.439453 -0.0195,0.683594 c 0.67994,0.175733 1.15234,0.460167 1.15234,1.021484 0,0.51107 -0.52603,0.90445 -1.21484,1.203125 l -0.0176,0.642578 C 14.4502,22.961159 15.5,22.373968 15.5,21.5 c 0,-1.00497 -0.97319,-1.441515 -2.13281,-1.705078 z M 9.80859,20.65625 C 9.61465,20.882643 9.5,21.157912 9.5,21.5 c 0,0.48283 0.32227,0.877163 0.80859,1.199219 0.25934,-0.03837 0.60635,-0.09637 1.02149,-0.185547 C 10.84148,22.242885 10.5,21.909995 10.5,21.5 c 0,-0.276538 0.11871,-0.483952 0.31641,-0.646484 -0.33865,-0.04861 -0.67783,-0.109822 -1.00782,-0.197266 z m 1.91993,2.539062 C 10.80256,23.410798 10,23.5 10,23.5 V 24 c 0,0 0.77454,-0.07004 1.74219,-0.263672 z m 3.12109,0.28711 c -0.26067,0.149239 -0.53827,0.276706 -0.82422,0.388672 C 14.60134,23.961664 15,24 15,24 v -0.5 c 0,0 -0.0737,-0.0077 -0.15039,-0.01758 z" style="fill: #000000; fill-opacity: 1; stroke: none; stroke-width: 1px; stroke-linecap: butt; stroke-linejoin: miter; stroke-opacity: 1;" />
</svg>