<svg width="26" height="26" viewBox="0 0 26 26" xmlns="https://www.w3.org/2000/svg">
<path d="m 12,5 1,-1 m 1.5,1 A 2.5,2.5 0 0 1 12,7.5000004 2.5,2.5 0 0 1 9.5,5 2.5,2.5 0 0 1 12,2.5 2.5,2.5 0 0 1 14.5,5 Z" style="fill: none; stroke: #000000; stroke-width: 0.75; stroke-linecap: round; stroke-linejoin: miter; stroke-dasharray: none; stroke-opacity: 1;" />
<path d="M 15.87109,4 A 3.9999998,4 0 0 1 16,5 3.9999998,4 0 0 1 12.83594,8.9003904 C 12.4839,10.207854 11.77136,11.248573 11.00586,12.132812 11.07407,13.178133 11.93684,14 13,14 h 8 c 1.108,0 2,-0.892002 2,-2 V 6 C 23,4.8920022 22.108,4 21,4 Z M 12,4.25 A 0.75,0.75 0 0 0 11.25,5 0.75,0.75 0 0 0 12,5.75 0.75,0.75 0 0 0 12.75,5 0.75,0.75 0 0 0 12,4.25 Z M 6.35352,6.5859375 C 5.47754,6.5620725 4.85937,7.2812504 4.5,8.0000004 4,8.9999994 4,11.000001 5,11.5 6,11.999999 7.5,10.999999 8,10 8.5,9.0000014 9,7.9999994 7.5,7.0000004 7.07812,6.7187504 6.69629,6.5952759 6.35352,6.5859375 Z" style="fill: #000000; stroke: none; stroke-width: 0.5; stroke-linecap: round; stroke-linejoin: round; stroke-dasharray: none;" />
<path d="m 14,14 c 0,3 0,6.5 -4,6.5 -2,0 -3.06615,-0.375315 -3.06615,-0.375315 M 3.96118,17.98393 C 3.96118,17.98393 3.5,17 3.5,16 3.5,14 4.5,13.5 5,12.5 M 16.5,14 c 0,6 -1.5,9 -6.5,9 -5.41159,0 -5.31731,-3.048063 -4,-7 1,-3 4.9375,-4.53125 5.5,-7.9999996" style="fill: none; stroke: #000000; stroke-width: 1px; stroke-linecap: round; stroke-linejoin: miter; stroke-opacity: 1;" />
</svg>