<svg width="26" height="26" viewBox="0 0 26 26" xmlns="https://www.w3.org/2000/svg">
<circle cx="18.500029" cy="13.5" r="0.75" style="fill: #000000; stroke: none; stroke-width: 1; stroke-linecap: round; stroke-linejoin: round; stroke-dasharray: none;" />
<path d="m 12.600028,13.6 c -0.84117,0.505631 -2.6,2.9 -2.6,4.9 M 7.5000279,13.6 c 1.7,1.5 2.5000001,2.9 2.5000001,4.9 m 3,-14 -1,2 m -5.0000001,-2 1,2 m 2.0000001,12 c 0.0156,1.520336 1.5,3 4.5,3 3,0 4,-2 4,-5.5 M 7.5000279,5.5 c 0,0 -1.5,0.5 -1.5,2.5 0,2 0,6.5 4.0000001,6.5 4,0 4.5,-4.5 4.5,-6.5 0,-2 -2,-2.5 -2,-2.5 m 8,8.000002 c 0,1.104571 -0.89543,2.000002 -2,2.000002 -1.10457,0 -2,-0.895431 -2,-2.000002 0,-1.104571 0.89543,-2.000002 2,-2.000002 1.10457,0 2,0.895431 2,2.000002 z" style="fill: none; stroke: #000000; stroke-width: 1px; stroke-linecap: round; stroke-linejoin: miter; stroke-opacity: 1;" />
</svg>