<svg width="26" height="26" viewBox="0 0 26 26" xmlns="https://www.w3.org/2000/svg">
<path d="M 8,2 C 6.619289,2 5.5,3.34315 5.5,5 5.5,6.65685 6.619289,8 8,8 9.380711,8 10.5,6.65685 10.5,5 10.5,3.34315 9.380711,2 8,2 Z m 4,3 v 1 h 3 c 0,0 0.771603,0.007 1.527344,0.38477 C 17.283085,6.76264 18,7.41667 18,9 v 0.99414 h -1.5 c -0.44525,1.7e-4 -0.668245,0.54227 -0.353516,0.85742 l 2,2.50196 c 0.19523,0.19527 0.511802,0.19527 0.707032,0 l 2,-2.50196 C 20.949216,10.75586 21.00207,10.62559 21,10.49023 20.996,10.21703 20.773069,9.99413 20.5,9.99414 H 19 V 9 C 19,7.08334 17.96691,5.98736 16.972656,5.49023 15.978402,4.99311 15,5 15,5 Z M 5.5,8 C 4.357681,8.46784 3.3,9.9 3,12 h 3 l 1.056641,-1.18555 c 0.443113,-0.55074 0.882812,0.008 0.882812,0.008 L 9,12 h 4 C 12.7,9.9 11.640992,8.46828 10.5,8 9.883561,8.71328 8.862709,8.99962 8,9 7.137961,8.999 6.115699,8.71304 5.5,8 Z m 2,3.5 c -0.12795,0 -0.255901,0.0488 -0.353516,0.14648 l -2,2.50196 C 5.050784,14.24414 4.99793,14.37441 5,14.50977 c 0.004,0.2732 0.22693,0.4961 0.5,0.49609 H 7 V 16 c 0,1.91666 1.033085,3.01264 2.027344,3.50977 C 10.021593,20.00689 11,20 11,20 h 3 V 19 H 11 C 11,19 10.228395,18.993 9.472656,18.61523 8.716917,18.23736 8,17.58333 8,16 v -0.99414 h 1.5 c 0.44525,-1.7e-4 0.668245,-0.54227 0.353516,-0.85742 l -2,-2.50196 C 7.755901,11.54885 7.62795,11.5 7.5,11.5 Z M 18,14 a 2.5,3 0 0 0 -2.5,3 2.5,3 0 0 0 2.5,3 2.5,3 0 0 0 2.5,-3 2.5,3 0 0 0 -2.5,-3 z m -2.5,6 c -1.142319,0.46784 -2.2,1.9 -2.5,4 h 10 c -0.3,-2.1 -1.359008,-3.53172 -2.5,-4 -0.616439,0.71328 -1.637291,0.99962 -2.5,1 -0.862039,-0.001 -1.884301,-0.28696 -2.5,-1 z" style="fill: #000000; fill-opacity: 1; stroke: none; stroke-width: 2; stroke-linecap: butt; stroke-linejoin: miter; stroke-miterlimit: 4; stroke-dasharray: none; stroke-dashoffset: 0; stroke-opacity: 1;" />
</svg>