<svg width="26" height="26" viewBox="0 0 26 26" xmlns="https://www.w3.org/2000/svg">
<path d="M 13,5 A 2,2 0 0 0 11.273438,6 H 5 v 1 l 6.212891,0.8867188 A 2,2 0 0 0 12.023438,8.730469 H 12 V 19.041016 C 9.112431,19.285059 6.999078,20.535735 7,22 h 6 6 C 18.9952,20.53795 16.883206,19.290549 14,19.046875 V 8.728516 H 13.97852 A 2,2 0 0 0 14.787109,7.8867188 L 21,7 V 6 H 14.730469 A 2,2 0 0 0 13,5 Z m 0,1 A 1,1 0 0 1 14,7 1,1 0 0 1 13,8 1,1 0 0 1 12,7 1,1 0 0 1 13,6 Z M 3,13 c 0,1.656852 1.790863,3 4,3 2.209137,0 4,-1.343148 4,-3 H 7 Z m 12,0 c 0,1.656852 1.790863,3 4,3 2.209137,0 4,-1.343148 4,-3 h -4 z" style="fill: #000000; fill-opacity: 1; stroke: none; stroke-width: 1; stroke-linecap: round; stroke-linejoin: round; stroke-miterlimit: 4; stroke-dasharray: none; stroke-dashoffset: 2.8; stroke-opacity: 1;" />
<path d="M 16,13 19,7.0000001 22,13 M 4,13 7,7.0000001 10,13" style="fill: none; stroke: #000000; stroke-width: 0.75; stroke-linecap: round; stroke-linejoin: round; stroke-miterlimit: 4; stroke-dasharray: none; stroke-opacity: 1;" />
</svg>