<svg width="26" height="26" viewBox="0 0 26 26" xmlns="https://www.w3.org/2000/svg">
<path d="m 11.9,5.0000005 0.6,2.5000005 m -2,5 -6.7,-5.8000005 m 8.7,4.3000005 -8.5,12 9.5,-7.5 8.5,7.5 -6,-10 L 22.1,8.7 M 23,7.5 a 4.5,2 0 0 1 -4.5,2 4.5,2 0 0 1 -4.5,-2 4.5,2 0 0 1 4.5,-2 4.5,2 0 0 1 4.5,2 z m -11,-2 a 4.5,2 0 0 1 -4.5,2 4.5,2 0 0 1 -4.5,-2 4.5,2 0 0 1 4.5,-2 4.5,2 0 0 1 4.5,2 z" style="fill: none; stroke: #000000; stroke-width: 1px; stroke-linecap: round; stroke-linejoin: round; stroke-opacity: 1;" />
</svg>