<svg width="26" height="26" viewBox="0 0 26 26" xmlns="https://www.w3.org/2000/svg">
<rect x="4" y="4.0000014" width="18" height="18" style="opacity: 0.25; fill: #000000; fill-opacity: 1; stroke: none; stroke-width: 0.999996; stroke-linecap: butt; stroke-linejoin: miter; stroke-miterlimit: 4; stroke-dasharray: 0.999996, 0.999996; stroke-dashoffset: 0.499997; stroke-opacity: 1;" />
<rect x="8.5" y="8.499999" width="9.0000038" height="9.000001" rx="0" ry="0" style="fill: none; fill-opacity: 1; stroke: #000000; stroke-width: 0.999998; stroke-linecap: butt; stroke-linejoin: miter; stroke-miterlimit: 4; stroke-dasharray: 0.999998, 0.999998; stroke-dashoffset: 0.499999; stroke-opacity: 1;" />
<rect x="4.5" y="4.4999995" width="17.000002" height="17.000002" rx="0" ry="0" style="fill: none; fill-opacity: 1; stroke: #000000; stroke-width: 0.999999; stroke-linecap: butt; stroke-linejoin: miter; stroke-miterlimit: 4; stroke-dasharray: 0.999999, 0.999999; stroke-dashoffset: 0.499999; stroke-opacity: 1;" />
<path d="m 14.5,5.9999995 c -0.44452,1.74e-4 -0.66773,0.537127 -0.35352,0.851562 l 1.74219,1.732422 c 0,0 -0.28474,1.107011 -1.22461,2.0468745 -0.48992,0.470414 0.23467,1.195002 0.70508,0.705078 0.88785,-0.88785 2.04688,-1.224609 2.04688,-1.224609 l 1.73242,1.742188 C 19.46287,12.167733 19.99983,11.944525 20,11.499999 V 6.4999995 c -3e-5,-0.275638 -0.22436,-0.499972 -0.5,-0.5 z" style="fill: #000000; fill-opacity: 1; stroke: none; stroke-width: 1px; stroke-linecap: butt; stroke-linejoin: round; stroke-miterlimit: 4; stroke-dasharray: none; stroke-dashoffset: 0; stroke-opacity: 1;" />
</svg>