<svg width="26" height="26" viewBox="0 0 26 26" xmlns="https://www.w3.org/2000/svg">
<rect x="8.000001" y="8.0000019" width="10" height="10" style="opacity: 0.25; fill: #000000; fill-opacity: 1; stroke: none; stroke-width: 0.999999; stroke-linecap: butt; stroke-linejoin: miter; stroke-miterlimit: 4; stroke-dasharray: 0.999999, 0.999999; stroke-dashoffset: 0.499997; stroke-opacity: 1;" />
<rect x="8.499999" y="8.5" width="9.0000038" height="9.000001" rx="0" ry="0" style="fill: none; fill-opacity: 1; stroke: #000000; stroke-width: 0.999998; stroke-linecap: butt; stroke-linejoin: miter; stroke-miterlimit: 4; stroke-dasharray: 0.999998, 0.999998; stroke-dashoffset: 0.499999; stroke-opacity: 1;" />
<rect x="4.4999995" y="4.4999995" width="17.000002" height="17.000002" rx="0" ry="0" style="fill: none; fill-opacity: 1; stroke: #000000; stroke-width: 0.999999; stroke-linecap: butt; stroke-linejoin: miter; stroke-miterlimit: 4; stroke-dasharray: 0.999999, 0.999999; stroke-dashoffset: 0.499999; stroke-opacity: 1;" />
<path d="m 14.515629,5.9999996 c -0.26081,-0.0063 -0.51551,0.194389 -0.51563,0.5 V 11.5 c 3e-5,0.275639 0.22436,0.499972 0.5,0.5 h 5 c 0.44452,-1.74e-4 0.66773,-0.537128 0.35352,-0.851562 l -1.74219,-1.732422 c 0,0 0.28474,-1.1070114 1.22461,-2.0468754 0.48992,-0.470415 -0.23466,-1.195003 -0.70508,-0.705079 -0.88785,0.887851 -2.04688,1.22461 -2.04688,1.22461 l -1.73242,-1.742188 c -0.0983,-0.09819 -0.21738,-0.14361 -0.33593,-0.146484 z" style="fill: #000000; fill-opacity: 1; stroke: none; stroke-width: 1px; stroke-linecap: butt; stroke-linejoin: round; stroke-miterlimit: 4; stroke-dasharray: none; stroke-dashoffset: 0; stroke-opacity: 1;" />
</svg>