<svg width="26" height="26" viewBox="0 0 26 26" xmlns="https://www.w3.org/2000/svg">
<path d="m 5,5 v 12 h 4 v 4 H 21 V 9 H 17 V 5 Z" style="opacity: 0.25; fill: #000000; fill-opacity: 1; stroke: none; stroke-width: 0.999996; stroke-linecap: butt; stroke-linejoin: miter; stroke-miterlimit: 4; stroke-dasharray: 0.999996, 0.999996; stroke-dashoffset: 0.499998; stroke-opacity: 1;" />
<rect x="9.5" y="9.5" width="11.000003" height="11.000004" rx="0" ry="0" style="fill: none; fill-opacity: 1; stroke: #000000; stroke-width: 0.999996; stroke-linecap: butt; stroke-linejoin: miter; stroke-miterlimit: 4; stroke-dasharray: 0.999996, 0.999996; stroke-dashoffset: 0.499999; stroke-opacity: 1;" />
<path d="M 9,16.5 H 5.5 v -11 h 11 V 9" style="fill: none; stroke: #000000; stroke-width: 0.999997; stroke-dasharray: 0.999997, 0.999997; stroke-dashoffset: 0;" />
<path d="M 14.5,11 C 14.223,11 14,11.223 14,11.5 V 14 H 11.5 C 11.223,14 11,14.223 11,14.5 v 1 c 0,0.277 0.223,0.5 0.5,0.5 H 14 v 2.5 c 0,0.277 0.223,0.5 0.5,0.5 h 1 C 15.777,19 16,18.777 16,18.5 V 16 h 2.5 c 0.277,0 0.5,-0.223 0.5,-0.5 v -1 C 19,14.223 18.777,14 18.5,14 H 16 V 11.5 C 16,11.223 15.777,11 15.5,11 Z" style="fill: #000000; fill-opacity: 1; stroke: none; stroke-width: 2; stroke-linecap: butt; stroke-linejoin: miter; stroke-miterlimit: 4; stroke-dasharray: none; stroke-dashoffset: 0; stroke-opacity: 1;" />
</svg>