<svg width="26" height="26" viewBox="0 0 26 26" xmlns="https://www.w3.org/2000/svg">
<path d="M 9.9999986,21.000001 H 19.999999 m -10.0000004,-4 H 21.999999 M 9.9999986,9.0000015 H 19.999999 m -10.0000004,-4 H 21.999999" style="fill: none; stroke: #000000; stroke-width: 2; stroke-linecap: butt; stroke-linejoin: miter; stroke-miterlimit: 4; stroke-dasharray: none; stroke-opacity: 1;" />
<path d="m 2.5000586,6.4942935 c 0.004,-0.272891 0.22686,-0.49186 0.49992,-0.49185 h 1.49977 l 0.49993,-2.495661 c -0.01,-0.67571 1.00941,-0.67571 0.99984,0 l 0.49993,2.495662 h 1.49977 c 0.44525,1.7e-4 0.66819,0.538149 0.35346,0.85294 l -2.49962,2.998329 c -0.19523,0.1950505 -0.51169,0.1950505 -0.70692,0 l -2.49962,-2.99833 c -0.0957,-0.0956 -0.14853,-0.22588 -0.14646,-0.36109 z m 0,13.0114135 c 0.004,0.272892 0.22686,0.49186 0.49992,0.49185 h 1.49977 l 0.49993,2.495661 c -0.01,0.67571 1.00941,0.67571 0.99984,0 l 0.49993,-2.495661 h 1.49977 c 0.44525,-1.7e-4 0.66819,-0.538149 0.35346,-0.85294 l -2.49962,-2.99833 c -0.19523,-0.195049 -0.51169,-0.195049 -0.70692,0 l -2.49962,2.99833 c -0.0957,0.0956 -0.14853,0.22588 -0.14646,0.36109 z" style="fill: #000000; fill-opacity: 1; stroke: none; stroke-width: 1px; stroke-linecap: butt; stroke-linejoin: round; stroke-miterlimit: 4; stroke-dasharray: none; stroke-dashoffset: 0; stroke-opacity: 1;" />
<path d="M 4.9999986,11.500002 H 21.999999 m -17.0000004,3 H 21.999999" style="fill: none; stroke: #000000; stroke-width: 1px; stroke-linecap: butt; stroke-linejoin: miter; stroke-dasharray: 1, 1; stroke-dashoffset: 0; stroke-opacity: 1;" />
</svg>