<svg width="26" height="26" viewBox="0 0 26 26" xmlns="https://www.w3.org/2000/svg">
<path d="m 6.4942925,9.9999368 c -0.27289,-0.004 -0.49186,-0.22686 -0.49185,-0.49992 v -1.49977 l -2.49566,-0.49993 c -0.67571,0.01 -0.67571,-1.00941 0,-0.99984 l 2.49566,-0.49993 v -1.49977 c 1.7e-4,-0.44525 0.53815,-0.6681899 0.85294,-0.35346 l 2.9983299,2.49962 c 0.1950496,0.19523 0.1950496,0.51169 0,0.70692 l -2.9983299,2.49962 c -0.0956,0.0957 -0.22588,0.1485302 -0.36109,0.14646 z m 13.0114195,0 c 0.27289,-0.004 0.49186,-0.22686 0.49185,-0.49992 v -1.49977 l 2.49566,-0.49993 c 0.67571,0.01 0.67571,-1.00941 0,-0.99984 l -2.49566,-0.49993 v -1.49977 c -1.7e-4,-0.44525 -0.53815,-0.6681899 -0.85294,-0.35346 l -2.99833,2.49962 c -0.19505,0.19523 -0.19505,0.51169 0,0.70692 l 2.99833,2.49962 c 0.0956,0.0957 0.22588,0.1485302 0.36109,0.14646 z" style="fill: #000000; fill-opacity: 1; stroke: none; stroke-width: 1px; stroke-linecap: butt; stroke-linejoin: round; stroke-miterlimit: 4; stroke-dasharray: none; stroke-dashoffset: 0; stroke-opacity: 1;" />
<path d="M 11.500003,13.999998 V 4.9999978 m 3,9.0000002 V 4.9999978" style="fill: none; stroke: #000000; stroke-width: 1px; stroke-linecap: butt; stroke-linejoin: miter; stroke-dasharray: 1, 1; stroke-dashoffset: 0; stroke-opacity: 1;" />
<path d="m 12.000003,20.999998 h 10 m -17.9999996,0 h 6.9999996 m 6,-4 h 5 m -17.9999996,0 H 16.000003 m 0,-4 h 6 m -17.9999996,0 h 5.9999996" style="fill: none; stroke: #000000; stroke-width: 2; stroke-linecap: butt; stroke-linejoin: miter; stroke-miterlimit: 4; stroke-dasharray: none; stroke-opacity: 1;" />
</svg>