<svg width="26" height="26" viewBox="0 0 26 26" xmlns="https://www.w3.org/2000/svg">
<path d="M 10,21 H 22 M 10,17 H 20 M 10,13 H 21 M 10,9 h 9 M 10,5 h 12" style="fill: none; stroke: #000000; stroke-width: 2; stroke-linecap: butt; stroke-linejoin: miter; stroke-miterlimit: 4; stroke-dasharray: none; stroke-opacity: 1;" />
<path d="m 6.9994486,18.493222 h 1.49977 c 0.44525,1.71e-4 0.6681904,0.544021 0.35346,0.859171 l -1.99962,2.50116 c -0.19523,0.19527 -0.51169,0.19527 -0.70692,0 l -1.99962,-2.50116 c -0.0957,-0.0957 -0.14853,-0.226141 -0.14646,-0.3615 0.004,-0.2732 0.22687,-0.49768 0.49994,-0.497671 h 1.49976 V 7.5067825 h -1.49976 c -0.27307,1e-5 -0.49564,-0.22447 -0.49994,-0.49767 -0.002,-0.13537 0.0508,-0.26579 0.14646,-0.3615 l 1.99962,-2.50116 c 0.19523,-0.19527 0.51169,-0.19527 0.70692,0 l 1.99962,2.50116 c 0.3147304,0.31515 0.0918,0.859 -0.35346,0.85917 h -1.49977 z" style="fill: #000000; fill-opacity: 1; stroke: none; stroke-width: 1px; stroke-linecap: butt; stroke-linejoin: round; stroke-miterlimit: 4; stroke-dasharray: none; stroke-dashoffset: 0; stroke-opacity: 1;" />
</svg>