<svg width="26" height="26" viewBox="0 0 26 26" xmlns="https://www.w3.org/2000/svg">
<path d="M 8,2.5 C 6.615,2.5 5.5,3.615 5.5,5 V 15.26172 C 4.2513224,16.096027 3.5011274,17.498247 3.5,19 c 0,2.485281 2.0147186,4.5 4.5,4.5 2.485281,0 4.5,-2.014719 4.5,-4.5 -4.77e-4,-1.502444 -0.750748,-2.905539 -2,-3.74023 V 5 C 10.5,3.615 9.385,2.5 8,2.5 Z" style="fill: none; fill-opacity: 1; stroke: #000000; stroke-width: 1; stroke-linecap: square; stroke-linejoin: miter; stroke-miterlimit: 4; stroke-dasharray: none; stroke-dashoffset: 0; stroke-opacity: 1;" />
<path d="M 18,3.5 16.5,5 17.625,6.125 v 1.25 L 16.947266,8.0527344 15.279297,7.2207031 15.5,7 14,5.5 12.5,7 14,8.5 14.720703,7.7792969 16.386719,8.6132812 16,9 16.386719,9.3867188 14.720703,10.220703 14,9.5 12.5,11 14,12.5 15.5,11 15.279297,10.779297 16.947266,9.9472656 17.625,10.625 h 0.75 L 19.052734,9.9472656 20.720703,10.779297 20.5,11 22,12.5 23.5,11 22,9.5 21.279297,10.220703 19.613281,9.3867188 20,9 19.613281,8.6132812 21.279297,7.7792969 22,8.5 23.5,7 22,5.5 20.5,7 20.720703,7.2207031 19.052734,8.0527344 18.375,7.375 V 6.125 L 19.5,5 Z m 0,1 L 18.5,5 18,5.5 17.5,5 Z M 7,5 V 6 H 9 V 5 Z M 14,6.5 14.5,7 14,7.5 13.5,7 Z m 8,0 L 22.5,7 22,7.5 21.5,7 Z M 7,7 V 8 H 9 V 7 Z m 11,1 1,1 -1,1 -1,-1 z M 7,9 v 1 H 9 V 9 Z M 14,10.5 14.5,11 14,11.5 13.5,11 Z m 8,0 L 22.5,11 22,11.5 21.5,11 Z M 7,11 v 1 h 2 v -1 z m 0,2 v 3.173828 C 5.8021424,16.597328 5.00096,17.729482 5,19 c 0,1.656846 1.3431534,3 3,3 1.6568466,0 3,-1.343154 3,-3 -0.002,-1.269798 -0.802812,-2.400949 -2,-2.824219 V 13 Z m 9.642578,5.035156 C 16.23395,18.412794 16.001106,18.943596 16,19.5 c 0,1.104568 0.895433,2 2,2 0.556404,-0.0011 1.087206,-0.23395 1.464844,-0.642578 -1.376427,-0.37067 -2.451596,-1.445839 -2.822266,-2.822266 z" style="fill: #000000; fill-opacity: 1; stroke: none; stroke-width: 1; stroke-linecap: square; stroke-linejoin: miter; stroke-miterlimit: 4; stroke-dasharray: none; stroke-dashoffset: 0; stroke-opacity: 1;" />
<path d="M 18,11.49298 C 18,14 16.011,17.05037 15.73995,17.40523 15.26362,17.96465 15.00079,18.68186 15,19.42443 15,21.12302 16.34315,22.5 18,22.5 c 1.65685,0 3,-1.37698 3,-3.07557 -3.2e-4,-0.80905 -0.31158,-1.58538 -0.86635,-2.16079 C 19.65542,16.62238 18,14 18,11.49298 Z" style="fill: none; fill-opacity: 1; stroke: #000000; stroke-width: 0.75; stroke-linecap: butt; stroke-linejoin: round; stroke-miterlimit: 4; stroke-dasharray: none; stroke-dashoffset: 0; stroke-opacity: 1;" />
</svg>