<svg width="26" height="26" viewBox="0 0 26 26" xmlns="https://www.w3.org/2000/svg">
<path d="M 8,2.5 C 6.615,2.5 5.5,3.615 5.5,5 V 15.261719 C 4.251322,16.096026 3.501127,17.498246 3.5,19 c 0,2.485281 2.014719,4.5 4.5,4.5 2.485281,0 4.5,-2.014719 4.5,-4.5 -4.75e-4,-1.502446 -0.750747,-2.905542 -2,-3.740234 V 5 C 10.5,3.615 9.385,2.5 8,2.5 Z" style="fill: none; stroke: #000000; stroke-width: 1px; stroke-linecap: round; stroke-linejoin: miter; stroke-opacity: 1;" />
<path d="M 7,5 V 6 H 9 V 5 Z M 7,7 V 8 H 9 V 7 Z m 0,4 v 5.173828 C 5.802141,16.597335 5.000955,17.729479 5,19 c 0,1.656854 1.343146,3 3,3 1.656854,0 3,-1.343146 3,-3 -0.0018,-1.269804 -0.802815,-2.400952 -2,-2.824219 V 11 Z M 7,9 v 1 H 9 V 9 Z" style="fill: #000000; fill-opacity: 1; stroke: none; stroke-width: 1; stroke-linecap: square; stroke-linejoin: miter; stroke-miterlimit: 4; stroke-dasharray: none; stroke-dashoffset: 0; stroke-opacity: 1;" />
<path d="M 12,11.5 H 23" style="fill: none; stroke: #000000; stroke-width: 1px; stroke-linecap: butt; stroke-linejoin: miter; stroke-dasharray: 1, 1; stroke-dashoffset: 0; stroke-opacity: 1;" />
<path d="m 20.5,11.492979 c 0,2.507021 -1.989,5.557389 -2.260045,5.912253 -0.476336,0.559417 -0.739163,1.276625 -0.739955,2.0192 0,1.698589 1.343146,3.075568 3,3.075568 1.656854,0 3,-1.376979 3,-3.075568 -3.2e-4,-0.809048 -0.311585,-1.585384 -0.86635,-2.160793 C 22.155425,16.622382 20.5,14 20.5,11.492979 Z" style="fill: none; fill-opacity: 1; stroke: #000000; stroke-width: 0.75; stroke-linecap: butt; stroke-linejoin: round; stroke-miterlimit: 4; stroke-dasharray: none; stroke-dashoffset: 0; stroke-opacity: 1;" />
<path d="M 19.142578,18.035156 A 2,2 0 0 0 18.5,19.5 a 2,2 0 0 0 2,2 2,2 0 0 0 1.464844,-0.642578 4,4 0 0 1 -2.822266,-2.822266 z" style="fill: #000000; stroke: none; stroke-width: 0.499999; stroke-linecap: butt; stroke-linejoin: round; stroke-dasharray: none; stroke-dashoffset: 0;" />
<path d="m 14.1,15.739341 c 0,0.687318 0.7,0.687318 0.7,0.687318 m -0.05,-4.93368 c 0,2.007021 -1.16025,2.675501 -1.318359,2.892516 -0.277863,0.342108 -0.431179,0.780713 -0.431641,1.23483 0,1.038763 0.783502,1.880846 1.75,1.880846 0.966498,0 1.75,-0.842083 1.75,-1.880846 -1.87e-4,-0.494769 -0.181758,-0.969532 -0.505371,-1.32142 C 15.715664,13.906748 14.75,13.5 14.75,11.492979 Z" style="fill: none; stroke: #000000; stroke-width: 0.5; stroke-linecap: round; stroke-linejoin: round; stroke-dasharray: none; stroke-opacity: 1;" />
</svg>