<svg width="26" height="26" viewBox="0 0 26 26" xmlns="https://www.w3.org/2000/svg">
<path d="M 8,2.5 C 6.615,2.5 5.5,3.615 5.5,5 V 15.261719 A 4.5,4.5 0 0 0 3.5,19 4.5,4.5 0 0 0 8,23.5 4.5,4.5 0 0 0 12.5,19 4.5,4.5 0 0 0 10.5,15.259766 V 5 C 10.5,3.615 9.385,2.5 8,2.5 Z" style="fill: none; fill-opacity: 1; stroke: #000000; stroke-width: 1; stroke-linecap: square; stroke-linejoin: miter; stroke-miterlimit: 4; stroke-dasharray: none; stroke-dashoffset: 0; stroke-opacity: 1;" />
<path d="M 7,5 V 6 H 9 V 5 Z M 7,7 V 8 H 9 V 7 Z m 0,2 v 1 H 9 V 9 Z m 0,2 v 1 h 2 v -1 z m 0,4 v 1.173828 C 5.80214,16.597335 5.00096,17.729479 5,19 c 0,1.656854 1.34315,3 3,3 1.65685,0 3,-1.343146 3,-3 -0.002,-1.269804 -0.80281,-2.400952 -2,-2.824219 V 15 Z m 0,-2 v 1 h 2 v -1 z" style="fill: #000000; fill-opacity: 1; stroke: none; stroke-width: 1; stroke-linecap: square; stroke-linejoin: miter; stroke-miterlimit: 4; stroke-dasharray: none; stroke-dashoffset: 0; stroke-opacity: 1;" />
<path d="M 18,5.5 16.5,7 17.625,8.125 v 1.25 L 16.94727,10.052734 15.2793,9.220703 15.5,9 14,7.5 12.5,9 14,10.5 14.7207,9.779297 16.38672,10.613281 16,11 16.38672,11.386719 14.7207,12.220703 14,11.5 12.5,13 14,14.5 15.5,13 15.2793,12.779297 16.94727,11.947266 17.625,12.625 v 1.25 L 16.5,15 18,16.5 19.5,15 18.375,13.875 v -1.25 L 19.05273,11.947266 20.7207,12.779297 20.5,13 22,14.5 23.5,13 22,11.5 21.2793,12.220703 19.61328,11.386719 20,11 19.61328,10.613281 21.2793,9.779297 22,10.5 23.5,9 22,7.5 20.5,9 20.7207,9.220703 19.05273,10.052734 18.375,9.375 V 8.125 L 19.5,7 Z m 0,1 L 18.5,7 18,7.5 17.5,7 Z M 14,8.5 14.5,9 14,9.5 13.5,9 Z m 8,0 L 22.5,9 22,9.5 21.5,9 Z m -4,1.5 1,1 -1,1 -1,-1 z M 14,12.5 14.5,13 14,13.5 13.5,13 Z m 8,0 L 22.5,13 22,13.5 21.5,13 Z m -4,2 L 18.5,15 18,15.5 17.5,15 Z" style="fill: #000000; fill-opacity: 1; stroke: none; stroke-width: 0.75; stroke-linecap: butt; stroke-linejoin: miter; stroke-miterlimit: 4; stroke-dasharray: none; stroke-dashoffset: 0; stroke-opacity: 1;" />
</svg>