<svg width="26" height="26" viewBox="0 0 26 26" xmlns="https://www.w3.org/2000/svg">
<path d="M 8,2.5 C 6.615,2.5 5.5,3.615 5.5,5 V 15.261719 A 4.5,4.5 0 0 0 3.5,19 4.5,4.5 0 0 0 8,23.5 4.5,4.5 0 0 0 12.5,19 4.5,4.5 0 0 0 10.5,15.259766 V 5 C 10.5,3.615 9.385,2.5 8,2.5 Z" style="fill: none; fill-opacity: 1; stroke: #000000; stroke-width: 1; stroke-linecap: square; stroke-linejoin: miter; stroke-miterlimit: 4; stroke-dasharray: none; stroke-dashoffset: 0; stroke-opacity: 1;" />
<path d="M 19.10352,3 C 17.20047,4.1646124 14.37931,5.1409497 15.70898,11.960938 14.54959,11.379655 13.45834,10.689623 13.4707,8.21875 l -0.004,-0.033203 c -0.94121,1.075335 -1.4623,2.450384 -1.4668,3.873047 0,3.28165 2.68762,5.941406 6.00391,5.941406 3.31628,0 6.00548,-2.660635 5.99609,-5.478516 -0.009,-2.817881 -1.59927,-3.7125 -1.09961,-6.5507809 -1.92,0.4491785 -2.50466,2.1711061 -2.63086,3.7753909 C 18.96881,8.1251181 18.10188,5.5967921 19.10352,3 Z M 8,4.0253906 C 7.5,4.0253906 7,4.3500007 7,5 V 16.173828 C 5.80214,16.597335 5.00096,17.72948 5,19 c 0,1.656852 1.34315,3 3,3 1.65685,0 3,-1.343148 3,-3 -0.002,-1.269803 -0.80282,-2.400952 -2,-2.824219 V 5 C 9,4.3500007 8.5,4.0253906 8,4.0253906 Z m 9.55469,2.9707032 c -0.14328,2.2877052 1.73306,5.9508182 3.43945,6.3437502 0.53882,-0.361226 0.78828,-1.295133 1.35547,-2.550782 1.23513,3.757797 -1.35186,6.080344 -3.61328,6.408204 -2.26142,0.327858 -5.48539,-1.337987 -5.17188,-4.664063 0.55166,0.949598 2.86311,2.680884 4.11914,2.134766 -0.74454,-1.968134 -1.64377,-5.354913 -0.1289,-7.6718752 z" style="fill: #000000; fill-opacity: 1; stroke: none; stroke-width: 0.999994; stroke-linecap: butt; stroke-linejoin: round; stroke-miterlimit: 4; stroke-dasharray: none; stroke-dashoffset: 0; stroke-opacity: 1;" />
</svg>