<svg width="26" height="26" viewBox="0 0 26 26" xmlns="https://www.w3.org/2000/svg">
<path d="m 22,15.5 c -3,1 -3,-1 -4.5,-1 -1.5,0 -1.5,2 -4.441406,1 m 7.394534,-12 c 4,4 -3.8125,5.8125 0,10 m -3,-11 c 4,4 -3.8125,5.8125 0,10 m -3,-9 c 4,4 -3.8125,5.8125 0,10 M 8,2.5 C 6.615,2.5 5.5,3.615 5.5,5 V 15.261719 C 4.25132,16.096026 3.50113,17.498246 3.5,19 c 0,2.485281 2.01472,4.5 4.5,4.5 2.485281,0 4.5,-2.014719 4.5,-4.5 -4.75e-4,-1.502446 -0.750747,-2.905542 -2,-3.740234 V 5 C 10.5,3.615 9.385,2.5 8,2.5 Z" style="fill: none; stroke: #000000; stroke-width: 1; stroke-linecap: round; stroke-linejoin: round; stroke-dasharray: none;" />
<path d="m 22,18.5 c -3,1 -3,-1 -4.5,-1 -1.217592,0 -1.44683,1.317804 -3.063198,1.279167" style="fill: none; stroke: #000000; stroke-width: 0.75; stroke-linecap: round; stroke-linejoin: round; stroke-dasharray: none;" />
<path d="m 22,21.5 c -3,1 -3,-1 -4.5,-1 -1.369724,0 -1.488685,1.667682 -3.738667,1.195941" style="fill: none; stroke: #000000; stroke-width: 0.5; stroke-linecap: round; stroke-linejoin: round; stroke-dasharray: none;" />
<path d="M 7,5 V 6 H 9 V 5 Z m 0,2 v 9.173828 C 5.80214,16.597335 5.00096,17.729479 5,19 c 0,1.656854 1.34315,3 3,3 1.65685,0 3,-1.343146 3,-3 -0.002,-1.269804 -0.80281,-2.400952 -2,-2.824219 V 7 Z" style="fill: #000000; fill-opacity: 1; stroke: none; stroke-width: 1; stroke-linecap: square; stroke-linejoin: miter; stroke-miterlimit: 4; stroke-dasharray: none; stroke-dashoffset: 0; stroke-opacity: 1;" />
</svg>