<svg width="26" height="26" viewBox="0 0 26 26" xmlns="https://www.w3.org/2000/svg">
<path d="M 13,4 C 10.770838,4 9.23339,5.5498204 8.310547,7.2636719 7.387704,8.9775233 7,10.875002 7,12 v 3.5 c 0,0.559828 0.311424,1.036155 0.722656,1.398438 C 8.133888,17.260721 8.662498,17.544391 9.25,17.777344 10.425005,18.243249 11.836772,18.5 13,18.5 c 1.163228,0 2.574995,-0.256751 3.75,-0.722656 0.587502,-0.232953 1.116111,-0.516623 1.527344,-0.878906 C 18.688575,16.536155 19,16.059828 19,15.5 V 12 C 19,10.875002 18.612296,8.9775233 17.689453,7.2636719 16.76661,5.5498204 15.229162,4 13,4 Z m 0,1.125 c 0.499999,0 1.000001,0.1250005 1.5,0.375 0,0 2,4.000007 2,7.5 -2.624344,0.944542 -4.500005,0.999998 -7,0 0,-3.499993 2,-7.5 2,-7.5 C 11.999999,5.2500005 12.500001,5.125 13,5.125 Z M 8.5,14.5 a 0.5,0.5 0 0 1 0.353516,0.146484 c 0,0 0.216498,0.215949 0.548828,0.4375 C 9.734673,15.305538 10.166667,15.5 10.5,15.5 A 0.5,0.5 0 0 1 11,16 0.5,0.5 0 0 1 10.5,16.5 c -0.666665,0 -1.234676,-0.30554 -1.652344,-0.583984 -0.417668,-0.278446 -0.701172,-0.5625 -0.701172,-0.5625 a 0.5,0.5 0 0 1 0,-0.707032 A 0.5,0.5 0 0 1 8.5,14.5 Z m 9,0 a 0.5,0.5 0 0 1 0.353516,0.146484 0.5,0.5 0 0 1 0,0.707032 c 0,0 -0.283505,0.284054 -0.701172,0.5625 C 16.734675,16.19446 16.166664,16.5 15.5,16.5 A 0.5,0.5 0 0 1 15,16 0.5,0.5 0 0 1 15.5,15.5 c 0.333333,0 0.765328,-0.194462 1.097656,-0.416016 0.332331,-0.221551 0.548828,-0.4375 0.548828,-0.4375 A 0.5,0.5 0 0 1 17.5,14.5 Z" style="fill: #000000; stroke: none; stroke-linejoin: round;" />
<path d="m 7.5,21.5 h 11 M 9,19.5 h 8 m 2.5,3.5 -3,-4.5 m -10,4.5 3,-4.5" style="fill: none; stroke: #000000; stroke-width: 1px; stroke-linecap: round; stroke-linejoin: round; stroke-opacity: 1;" />
</svg>