<svg width="26" height="26" viewBox="0 0 26 26" xmlns="https://www.w3.org/2000/svg">
<path d="m 21.999998,17.500002 a 3.5,3.5000026 0 0 1 -3.5,3.500003 3.5,3.5000026 0 0 1 -3.5,-3.500003 3.5,3.5000026 0 0 1 3.5,-3.500003 3.5,3.5000026 0 0 1 3.5,3.500003 z m -11,0 a 3.5,3.5000026 0 0 1 -3.4999999,3.500003 3.5,3.5000026 0 0 1 -3.5,-3.500003 3.5,3.5000026 0 0 1 3.5,-3.500003 3.5,3.5000026 0 0 1 3.4999999,3.500003 z" style="fill: none; stroke: #000000; stroke-width: 0.999996; stroke-linecap: round; stroke-linejoin: round;" />
<path d="m 16.316404,4 c -0.931979,0 -1.6875,0.7555209 -1.6875,1.6875 0,0.9319801 0.755521,1.6875 1.6875,1.6875 0.93198,0 1.6875,-0.7555199 1.6875,-1.6875 0,-0.9319791 -0.75552,-1.6875 -1.6875,-1.6875 z m -2.890625,2.7519531 c -0.296071,0.002 -0.566749,0.1952795 -0.810547,0.3632813 -1.358583,0.9362017 -2.932367,1.9508011 -3.5,3.5000006 -0.218912,0.597461 -0.471506,1.453618 0.158203,1.902343 L 12.699217,14.376953 12.300779,18 c -0.0303,0.274474 0.18001,0.599609 0.699219,0.599609 0.475016,0 0.676985,-0.324364 0.699219,-0.599609 l 0.863281,-4.40039 c -2.03e-4,-0.1787 -0.0952,-0.344472 -0.25,-0.433593 h -0.002 l -2.382813,-1.824219 1.488282,-1.4882825 1.695312,1.7597665 0.002,-0.002 c 0.0939,0.116246 0.234518,0.187327 0.386719,0.1875 l 3,-0.298781 c 0.274774,-0.02746 0.5,-0.223858 0.5,-0.5 0,-0.276142 -0.223858,-0.5 -0.5,-0.5 h -2.5 c 0,0 -0.668518,-2.4546637 -1.539062,-3.3007822 C 14.191392,6.9372372 13.801654,6.7494156 13.425779,6.7519531 Z" style="fill: #000000; fill-opacity: 1; stroke: none; stroke-width: 1; stroke-linecap: round; stroke-linejoin: round; stroke-miterlimit: 4; stroke-dasharray: none; stroke-dashoffset: 0; stroke-opacity: 1;" />
</svg>