<svg width="26" height="26" viewBox="0 0 26 26" xmlns="https://www.w3.org/2000/svg">
<path d="M 12.5,4.0000008 C 12.25518,3.9995731 12.04605,4.1764674 12.00586,4.4179696 L 11.5,7.5000008 h 3 L 13.99414,4.4179696 C 13.95395,4.1764674 13.74482,3.9995731 13.5,4.0000008 Z m 0.28125,7.0507812 -6.97852,2.990235 a 0.50005,0.50005 0 0 0 -0.27929,0.607422 l 1.66797,5.335937 C 8.08307,19.850835 8.6582,18.830079 8.6582,18.830079 8.91209,18.321533 9.4316,18.000147 10,18.000001 c 0.5684,1.46e-4 1.08791,0.321532 1.3418,0.830078 0,0 0.30662,0.546597 0.82031,0.892578 z m 0.4375,0 0.61914,8.671875 c 0.51369,-0.34598 0.82031,-0.892575 0.82031,-0.892578 0.57503,-1.15105 2.23726,-1.091553 2.72852,0.09766 0,0 0.38624,1.04777 1.41797,1.072266 l 1.67187,-5.351562 a 0.50005,0.50005 0 0 0 -0.27929,-0.607422 z m -1.86523,1.451172 a 0.73794841,1.4205394 56.22197 0 1 0.59765,0.242188 0.73794841,1.4205394 56.22197 0 1 -0.85351,1.410156 0.73794841,1.4205394 56.22197 0 1 -1.54883,0.101562 0.73794841,1.4205394 56.22197 0 1 0.85351,-1.410156 0.73794841,1.4205394 56.22197 0 1 0.95118,-0.34375 z m 3.15429,0 a 1.4205394,0.73794841 33.77803 0 1 1.08985,0.34375 1.4205394,0.73794841 33.77803 0 1 0.85351,1.410156 1.4205394,0.73794841 33.77803 0 1 -1.54883,-0.101562 1.4205394,0.73794841 33.77803 0 1 -0.85351,-1.410156 1.4205394,0.73794841 33.77803 0 1 0.45898,-0.242188 z" style="fill: #000000; stroke: none; stroke-linejoin: round;" />
<path d="m 9.5,9.5000008 h 7 M 4,19.500001 c 0,0 1,2 3,2 2,0 3,-2 3,-2 0,0 1,2 3,2 2,0 3,-2 3,-2 0,0 0.87007,2.110485 3,2 2.12993,-0.110485 3,-2 3,-2 m -4.5,-6.5 -1,-5.5000002 h -7 l -1,5.5000002" style="fill: none; stroke: #000000; stroke-width: 1px; stroke-linecap: round; stroke-linejoin: round; stroke-opacity: 1;" />
</svg>