<svg width="26" height="26" viewBox="0 0 26 26" xmlns="https://www.w3.org/2000/svg">
<path d="m 14.500415,3.5 c -0.931979,0 -1.6875,0.7560219 -1.6875,1.688 0,0.9319791 0.755521,1.6875 1.6875,1.6875 0.931979,0 1.6875,-0.7555209 1.6875,-1.6875 0,-0.9319781 -0.755521,-1.688 -1.6875,-1.688 z m -2.074219,3.2517031 c -0.296071,0.002 -0.581428,0.1757525 -0.810547,0.3632813 -1.109541,0.9081349 -2.1193862,2.1176383 -2.5000002,3.4999996 -0.168911,0.613475 -0.471506,1.453619 0.158204,1.902344 l 3.6250002,1.359375 -0.597657,3.523438 c -0.0303,0.274473 0.18001,0.599609 0.699219,0.599609 0.47502,0 0.676989,-0.324364 0.699219,-0.599609 l 1.0625,-4.300782 c -2e-4,-0.178699 -0.0952,-0.344472 -0.25,-0.433593 h -0.002 l -2.582032,-1.324219 0.988282,-1.4882814 0.595703,1.0605464 0.002,-0.002 c 0.0939,0.116246 0.234519,0.187327 0.386719,0.1875 l 2.599609,-0.599562 c 0.27477,-0.02746 0.5,-0.223858 0.5,-0.5 0,-0.2761417 -0.22858,-0.5508364 -0.5,-0.5 l -1.599609,0.2988281 c 0,0 -0.705618,-1.9341041 -1.439453,-2.5996093 C 13.182916,6.9464579 12.802072,6.7491657 12.426196,6.7517031 Z m 4.728516,4.2871089 c -0.15001,0.09613 -0.317145,0.160909 -0.486328,0.191407 l -0.09375,0.01563 c 0.02291,-0.0023 0.04548,-0.0061 0.06836,-0.0098 l -0.957031,0.220703 c -0.06395,0.03795 -0.129162,0.07596 -0.191406,0.113281 -0.359196,0.21538 -0.544912,0.356912 -0.644533,0.429717 0.01251,0.0049 0.02488,0.01009 0.03711,0.01563 0.388328,0.223568 0.624503,0.638045 0.625,1.082031 2.75e-4,0.0612 -0.0069,0.122197 -0.02149,0.181641 l -1.060546,4.292969 -0.002,0.0078 c -0.04242,0.258586 -0.152571,0.522045 -0.371093,0.746094 -0.252257,0.258693 -0.64837,0.423835 -1.05659,0.423835 -0.416157,0 -0.818188,-0.145722 -1.089844,-0.421875 -0.271616,-0.276158 -0.394928,-0.652317 -0.355468,-1.009766 0.0015,-0.01438 0.0035,-0.02871 0.0059,-0.04297 l 0.496094,-2.914063 -3.0468752,-1.140625 c -0.06104,-0.023 -0.118819,-0.05386 -0.171875,-0.0918 -0.397027,-0.282882 -0.5956,-0.717251 -0.664104,-1.121089 -2.476646,0.08101 -4.3971561,1.044922 -4.3971561,1.044922 -0.4713711,0.235782 -0.3043946,0.946165 0.2226562,0.947266 0,0 2.4303969,0.002 3.0924689,0.002 h 0.0039 c 1.126602,0.02719 2.189708,0.526764 2.9277352,1.378906 0.687775,0.794127 1.083309,2.470137 0.947265,3.578125 -0.03661,0.300192 0.199556,0.563923 0.501953,0.560547 l 3.0625,-0.03906 c 0.295943,-0.0039 0.523757,-0.262577 0.490235,-0.556641 -0.156835,-1.376519 0.480616,-3.275834 1.521484,-4.083984 1.103248,-0.856584 2.571648,-1.07519 3.876953,-0.578125 5.77e-4,1.77e-4 0.03125,0.01172 0.03125,0.01172 0.614552,0.184896 0.922887,-0.714104 0.324219,-0.945313 -0.01076,-0.0041 -0.02242,1.07e-4 -0.0332,-0.0039 l 0.002,-0.0078 c 0,0 -0.612872,-0.187775 -1.349609,-0.554687 -0.736738,-0.366915 -1.570823,-0.92166 -1.982422,-1.539063 -0.0648,-0.08819 -0.15674,-0.152683 -0.261719,-0.183594 z" style="fill: #000000; stroke: none; stroke-linecap: round; stroke-linejoin: round;" />
<circle cx="19.000416" cy="17.99975" r="2.5000026" style="fill: none; stroke: #000000; stroke-width: 0.999995; stroke-linecap: round; stroke-linejoin: round; stroke-dasharray: none; stroke-opacity: 1;" />
<circle cx="7.0004168" cy="17.99975" r="2.5000026" style="fill: none; stroke: #000000; stroke-width: 0.999995; stroke-linecap: round; stroke-linejoin: round; stroke-dasharray: none; stroke-opacity: 1;" />
<path d="m 19.000415,17.99975 -2.5,-7.5 m -9.5000002,7.5 2.5,-3" style="fill: none; stroke: #000000; stroke-width: 1px; stroke-linecap: round; stroke-linejoin: miter; stroke-opacity: 1;" />
</svg>