<svg width="26" height="26" viewBox="0 0 26 26" xmlns="https://www.w3.org/2000/svg">
<path d="m 4.5,12.5 17,-6" style="fill: none; stroke: #000000; stroke-width: 1px; stroke-linecap: round; stroke-linejoin: miter; stroke-opacity: 1;" />
<path d="m 14,6 c -0.552285,0 -1,0.447715 -1,1 0,0.552285 0.447715,1 1,1 0.552285,0 1,-0.447715 1,-1 0,-0.552285 -0.447715,-1 -1,-1 z m -3,1 c -0.552285,0 -1,0.447715 -1,1 0,0.552285 0.447715,1 1,1 0.552285,0 1,-0.447715 1,-1 C 12,7.447715 11.552285,7 11,7 Z M 8,8 C 7.447715,8 7,8.447715 7,9 7,9.552285 7.447715,10 8,10 8.552285,10 9,9.552285 9,9 9,8.447715 8.552285,8 8,8 Z m 4.5,3.25 -1,0.25 0.32512,1.625601 L 12,14 H 9 c -0.553998,0 -1,0.446003 -1,1 v 5 c 0,0.553997 0.446002,1 1,1 h 8 c 0.553997,0 1,-0.446003 1,-1 v -5 c 0,-0.553997 -0.446003,-1 -1,-1 H 14 V 13 Z M 9.5,15 h 1 c 0.277,0 0.5,0.223 0.5,0.5 v 2 c 0,0.277 -0.223,0.5 -0.5,0.5 h -1 C 9.223001,18 9,17.777 9,17.5 v -2 C 9,15.223 9.223001,15 9.5,15 Z m 3,0 h 1 c 0.277,0 0.5,0.223 0.5,0.5 v 4 c 0,0.277 -0.223,0.5 -0.5,0.5 h -1 C 12.223,20 12,19.777 12,19.5 v -4 C 12,15.223 12.223,15 12.5,15 Z m 3,0 h 1 c 0.277,0 0.5,0.223 0.5,0.5 v 2 c 0,0.277 -0.223,0.5 -0.5,0.5 h -1 C 15.223,18 15,17.777 15,17.5 v -2 C 15,15.223 15.223,15 15.5,15 Z" style="fill: #000000; stroke: none; stroke-width: 1; stroke-linecap: round; stroke-linejoin: round; stroke-dasharray: none;" />
</svg>