<svg width="26" height="26" viewBox="0 0 26 26" xmlns="https://www.w3.org/2000/svg">
<path d="m 11,6 v 2 h 1 l 0.66992,4.470703 C 10.73524,12.422894 8.82457,11.927238 7,11 H 6 v 7 c 0,0.999998 1,1 1,1 v 1 c 0,0.999996 1,1 1,1 h 1 c 0,0 1,-4e-6 1,-1 v -1 h 6 v 1 c 0,0.999996 1,1 1,1 h 1 c 0,0 1,-4e-6 1,-1 v -1 c 0,0 1,-2e-6 1,-1 v -7 h -1 c -1.86796,0.933979 -3.77747,1.41916 -5.66992,1.472656 L 14,8 h 1 V 6 Z m -3,8 c 0.55228,0 1,0.447719 1,1 v 1 C 9,16.552281 8.55228,17 8,17 7.44772,17 7,16.552281 7,16 v -1 c 0,-0.552281 0.44772,-1 1,-1 z m 2.5,0 h 5 c 0.27614,0 0.5,0.223858 0.5,0.5 0,0.276142 -0.22386,0.5 -0.5,0.5 h -5 C 10.22386,15 10,14.776142 10,14.5 10,14.223858 10.22386,14 10.5,14 Z m 7.5,0 c 0.55228,0 1,0.447719 1,1 v 1 c 0,0.552281 -0.44772,1 -1,1 -0.55228,0 -1,-0.447719 -1,-1 v -1 c 0,-0.552281 0.44772,-1 1,-1 z m -7.5,2 h 5 c 0.27614,0 0.5,0.223858 0.5,0.5 0,0.276142 -0.22386,0.5 -0.5,0.5 h -5 C 10.22386,17 10,16.776142 10,16.5 10,16.223858 10.22386,16 10.5,16 Z" style="fill: #000000; stroke: none; stroke-width: 1px; stroke-linecap: butt; stroke-linejoin: miter; stroke-opacity: 1;" />
<path d="m 20,12 1.5,-0.5 m 0,1 v -3 M 6,12 4.5,11.5 m 0,1 v -3 m 2,1.5 1,-3.5 h 11 l 1,3.5 M 7.5,7.5 v -2 h 11 v 2" style="fill: none; stroke: #000000; stroke-width: 1px; stroke-linecap: round; stroke-linejoin: round; stroke-opacity: 1;" />
</svg>