<svg width="26" height="26" viewBox="0 0 26 26" xmlns="https://www.w3.org/2000/svg">
<path d="M 6.5,4 C 5.83334,4 5.36236,4.4080879 5.17773,4.7773438 4.99311,5.1465996 5,5.5 5,5.5 V 6 C 4,6 4,7 4,7 v 3 c 0,0 0,1 1,1 v 8.5 c 3e-5,0.276131 0.22387,0.499972 0.5,0.5 H 6 v 1 c 0,0.999994 1,1 1,1 h 2 c 0,0 1,-6e-6 1,-1 v -1 h 6 v 1 c 0,0.999994 1,1 1,1 h 2 c 0,0 1,-6e-6 1,-1 v -1 h 0.5 c 0.27613,-2.8e-5 0.49997,-0.223869 0.5,-0.5 V 11 c 1,0 1,-1 1,-1 V 7 C 22,7 22,6 21,6 V 5.5 C 21,5.5 21.007,5.1465996 20.82227,4.7773438 20.63764,4.4080879 20.16666,4 19.5,4 Z m 4,1 h 5 C 15.77614,5 16,5.2238576 16,5.5 16,5.7761424 15.77614,6 15.5,6 h -5 C 10.22386,6 10,5.7761424 10,5.5 10,5.2238576 10.22386,5 10.5,5 Z M 6,7 h 6 l 0.75,5.5 h 0.5 L 14,7 h 6 v 5.660156 c -5.12926,0.785903 -8.87074,0.785903 -14,0 z m 2,8 c 0.55228,0 1,0.447717 1,1 v 1 C 9,17.552283 8.55228,18 8,18 7.44772,18 7,17.552283 7,17 v -1 c 0,-0.552283 0.44772,-1 1,-1 z m 2.5,0 h 5 c 0.27614,0 0.5,0.223858 0.5,0.5 0,0.276142 -0.22386,0.5 -0.5,0.5 h -5 C 10.22386,16 10,15.776142 10,15.5 10,15.223858 10.22386,15 10.5,15 Z m 7.5,0 c 0.55228,0 1,0.447717 1,1 v 1 c 0,0.552283 -0.44772,1 -1,1 -0.55228,0 -1,-0.447717 -1,-1 v -1 c 0,-0.552283 0.44772,-1 1,-1 z m -7.5,2 h 5 c 0.27614,0 0.5,0.223858 0.5,0.5 0,0.276142 -0.22386,0.5 -0.5,0.5 h -5 C 10.22386,18 10,17.776142 10,17.5 10,17.223858 10.22386,17 10.5,17 Z" style="fill: #000000; stroke: none; stroke-linejoin: round;" />
</svg>