<svg width="26" height="26" viewBox="0 0 26 26" xmlns="https://www.w3.org/2000/svg">
<path d="m 12,7 1,4 1,-4 z m 1,4 H 5 c 0,0 -1,0 -1,1 0,1 1,1 1,1 0,0 -1,2.00001 0,4 v 2 c 0,1 1,1 1,1 h 1 c 0,0 1,0 1,-1 v -1 h 10 v 1 c 0,1 1,1 1,1 h 1 c 0,0 1,0 1,-1 v -2 c 1,-1.99999 0,-4 0,-4 0,0 1,0 1,-1 0,-1 -1,-1 -1,-1 z m -2.5,2 h 5 c 0.27614,0 0.5,0.22386 0.5,0.5 0,0.27614 -0.22386,0.5 -0.5,0.5 h -5 C 10.22386,14 10,13.77614 10,13.5 10,13.22386 10.22386,13 10.5,13 Z m -3,0.5 c 0.55228,0 1,0.44772 1,1 0,0.55228 -0.44772,1 -1,1 -0.55228,0 -1,-0.44772 -1,-1 0,-0.55228 0.44772,-1 1,-1 z m 11,0 c 0.55228,0 1,0.44772 1,1 0,0.55228 -0.44772,1 -1,1 -0.55228,0 -1,-0.44772 -1,-1 0,-0.55228 0.44772,-1 1,-1 z m -8,1.5 h 5 c 0.27614,0 0.5,0.22386 0.5,0.5 0,0.27614 -0.22386,0.5 -0.5,0.5 h -5 C 10.22386,16 10,15.77614 10,15.5 10,15.22386 10.22386,15 10.5,15 Z" style="fill: #000000; stroke: none; stroke-width: 1px; stroke-linecap: butt; stroke-linejoin: miter; stroke-opacity: 1;" />
<path d="m 11,7.5 -0.5,-2 h 5 L 15,7.5 M 6.5,12 c 0,0 0,-3 1,-4 1,-1 10,-1 11,0 1,1 1,4 1,4" style="fill: none; stroke: #000000; stroke-width: 1px; stroke-linecap: butt; stroke-linejoin: round; stroke-opacity: 1;" />
</svg>