<svg width="26" height="26" viewBox="0 0 26 26" xmlns="https://www.w3.org/2000/svg">
<path d="M 2.5000212,8 C 2.1847392,8.0001243 1.948246,8.2884388 2.0097868,8.5976562 L 2.4414274,10.753906 C 2.157303,11.107231 2.0016607,11.54661 2.0000212,12 c -1.965e-4,0.579049 0.2505816,1.129764 0.6875,1.509766 L 2.5097868,14.402344 C 2.4482462,14.711561 2.6847393,14.999876 3.0000212,15 h 0.5 c 0.1758501,4.4e-4 0.3390067,-0.09152 0.4296875,-0.242188 l 0.4824219,-0.804687 c 0.524159,-0.110262 0.9821869,-0.426168 1.2714844,-0.876953 l 4.408203,1.322266 c 0.110525,0.931643 0.508387,1.71529 1.171875,2.230468 0.763814,0.593083 1.758138,0.917673 2.833984,1.113282 C 16.249369,18.133402 18.773842,18 20.500021,18 c 0.80555,0 1.608923,-0.126099 2.265625,-0.417969 0.328353,-0.145935 0.624704,-0.334203 0.853516,-0.595703 C 23.847969,16.724829 24.000021,16.375 24.000021,16 c 0,-0.488021 -0.143247,-0.955633 -0.396484,-1.396484 l -1.25,1.25 C 22.259781,15.947284 22.132621,15.999975 22.000021,16 h -3.5 c -0.215285,1.12e-4 -0.406477,-0.137577 -0.474609,-0.341797 l -1,-3 c -0.09268,-0.279311 0.07469,-0.577866 0.361328,-0.644531 L 18.000021,12 16.839865,11.064453 15.947287,9.277344 C 15.862839,9.107574 15.689634,9.000172 15.500021,9 h -1.5 c -0.1326,2.5e-5 -0.25976,0.05272 -0.353516,0.146484 L 11.79299,11 H 5.73049 C 5.4670898,10.544541 5.0348236,10.211218 4.527365,10.072266 L 3.4297087,8.2421875 C 3.3390278,8.0915211 3.1758712,7.99956 3.0000212,8 Z m 1.5,3 c 0.5522841,0 1,0.447716 1,1 0,0.552284 -0.4477159,1 -1,1 -0.5522841,0 -1,-0.447716 -1,-1 0,-0.552284 0.4477159,-1 1,-1 z m 9.4999998,1 h 2 c 0.215285,-1.12e-4 0.406477,0.137577 0.474609,0.341797 l 1,3 C 17.082612,15.66569 16.84144,16.000155 16.500021,16 h -2 c -0.215285,1.12e-4 -0.406477,-0.137577 -0.474609,-0.341797 l -1,-3 C 12.91743,12.33431 13.158602,11.999845 13.500021,12 Z m -0.5,6 c -0.552285,0 -1,0.447715 -1,1 0,0.552285 0.447715,1 1,1 0.552285,0 1,-0.447715 1,-1 0,-0.552285 -0.447715,-1 -1,-1 z m 7.25,1 c -0.414214,0 -0.75,0.335786 -0.75,0.75 0,0.414214 0.335786,0.75 0.75,0.75 0.414214,0 0.75,-0.335786 0.75,-0.75 0,-0.414214 -0.335786,-0.75 -0.75,-0.75 z" style="fill: #000000; stroke: none; stroke-linecap: round; stroke-linejoin: round;" />
<path d="m 23.500021,16 c 0,-2 -3.314237,-4.172907 -7,-4.5 m -2,-3.5 V 7 M 5.5000212,8 23.500021,7" style="fill: none; stroke: #000000; stroke-width: 1px; stroke-linecap: round; stroke-linejoin: round; stroke-opacity: 1;" />
</svg>