<svg width="26" height="26" viewBox="0 0 26 26" xmlns="https://www.w3.org/2000/svg">
<path d="m 7.5,21.5 h 11 M 9,19.5 h 8 m 2.5,3.5 -3,-4.5 m -10,4.5 3,-4.5" style="fill: none; stroke: #000000; stroke-width: 1px; stroke-linecap: round; stroke-linejoin: round; stroke-opacity: 1;" />
<path d="M 9,4 C 8.8674,4.0000254 8.74024,4.052716 8.646484,4.1464844 l -1.5,1.5 C 7.052716,5.7402402 7.000025,5.8674007 7,6 V 9 H 6.5 C 6.223869,9.000028 6.000028,9.223869 6,9.5 v 6 c 2.8e-5,0.276131 0.223869,0.499972 0.5,0.5 H 7 v 1.5 c 2.8e-5,0.276131 0.223869,0.499972 0.5,0.5 h 11 c 0.276131,-2.8e-5 0.499972,-0.223869 0.5,-0.5 V 16 h 0.5 c 0.276131,-2.8e-5 0.499972,-0.223869 0.5,-0.5 v -6 C 19.999972,9.223869 19.776131,9.000028 19.5,9 H 19 V 6 C 18.999975,5.8674007 18.94728,5.7402402 18.853516,5.6464844 l -1.5,-1.5 C 17.25976,4.0527163 17.1326,4.0000254 17,4 H 16.5 9.875 9.5 Z M 9.25,5 H 11 v 2 h 4 V 5 h 1.75 L 18,6.25 v 4.25 c 0,0.499999 -1,0.499999 -1,0 v -2 l -1,-1 h -6 l -1,1 v 2 c 0,0.499999 -1,0.499999 -1,0 V 6.25 Z M 13,8.5 A 1.5,1.5 0 0 1 14.5,10 1.5,1.5 0 0 1 13,11.5 1.5,1.5 0 0 1 11.5,10 1.5,1.5 0 0 1 13,8.5 Z m 0,4.5 a 1,1 0 0 1 1,1 1,1 0 0 1 -1,1 1,1 0 0 1 -1,-1 1,1 0 0 1 1,-1 z m -4.5,3 h 2 A 0.5,0.5 0 0 1 11,16.5 0.5,0.5 0 0 1 10.5,17 h -2 A 0.5,0.5 0 0 1 8,16.5 0.5,0.5 0 0 1 8.5,16 Z m 7,0 h 2 A 0.5,0.5 0 0 1 18,16.5 0.5,0.5 0 0 1 17.5,17 h -2 A 0.5,0.5 0 0 1 15,16.5 0.5,0.5 0 0 1 15.5,16 Z" style="fill: #000000; stroke: none; stroke-linecap: round; stroke-linejoin: round;" />
</svg>