<svg width="26" height="26" viewBox="0 0 26 26" xmlns="https://www.w3.org/2000/svg">
<path d="M 2.5000212,8 C 2.1847395,8.000124 1.9482461,8.288439 2.0097868,8.597656 l 0.4316406,2.15625 C 2.1573033,11.107231 2.0016607,11.54661 2.0000212,12 c -1.965e-4,0.579048 0.250582,1.129764 0.6875,1.509766 L 2.5097868,14.402344 C 2.4482463,14.71156 2.6847396,14.999876 3.0000212,15 h 0.5 c 0.1758499,4.4e-4 0.3390068,-0.09152 0.4296875,-0.242188 L 4.4121306,13.953125 C 4.9362891,13.842863 5.3943177,13.526956 5.683615,13.076172 l 4.408203,1.322266 c 0.110525,0.931642 0.508388,1.715291 1.171875,2.230468 0.763813,0.593083 1.758139,0.917673 2.833984,1.113282 C 16.249367,18.133401 18.773844,18 20.500021,18 c 0.805549,0 1.608924,-0.126099 2.265625,-0.417969 0.328353,-0.145935 0.624704,-0.334203 0.853516,-0.595703 C 23.847968,16.724829 24.000021,16.375 24.000021,16 c 0,-0.488021 -0.143248,-0.955634 -0.396484,-1.396484 l -1.25,1.25 C 22.259781,15.947284 22.132621,15.999975 22.000021,16 h -3.5 c -0.215285,1.12e-4 -0.406477,-0.137577 -0.474609,-0.341797 l -1,-3 c -0.09268,-0.279311 0.07469,-0.577866 0.361328,-0.644531 L 18.000021,12 16.839865,11.064453 15.947287,9.277344 C 15.862839,9.107574 15.689634,9.000172 15.500021,9 h -1.5 c -0.1326,2.5e-5 -0.25976,0.05272 -0.353516,0.146484 L 11.79299,11 H 5.73049 C 5.46709,10.544541 5.034823,10.211217 4.527365,10.072266 L 3.4297087,8.242188 C 3.3390279,8.091521 3.175871,7.99956 3.0000212,8 Z m 1.5,3 c 0.5522835,0 1,0.447717 1,1 0,0.552283 -0.4477165,1 -1,1 -0.5522835,0 -1,-0.447717 -1,-1 0,-0.552283 0.4477165,-1 1,-1 z m 9.4999998,1.25 a 2.25,2.25 0 0 1 2.25,2.25 2.25,2.25 0 0 1 -2.25,2.25 2.25,2.25 0 0 1 -2.25,-2.25 2.25,2.25 0 0 1 2.25,-2.25 z m -0.5,5.75 c -0.552284,0 -1,0.447716 -1,1 0,0.552284 0.447716,1 1,1 0.552284,0 1,-0.447716 1,-1 0,-0.552284 -0.447716,-1 -1,-1 z m 7.25,1 c -0.414214,0 -0.75,0.335786 -0.75,0.75 0,0.414214 0.335786,0.75 0.75,0.75 0.414214,0 0.75,-0.335786 0.75,-0.75 0,-0.414214 -0.335786,-0.75 -0.75,-0.75 z" style="fill: #000000; stroke: none; stroke-linecap: round; stroke-linejoin: round;" />
<path d="m 13.500021,15.5 v -2 m -1,1 h 2 m 9,1.5 c 0,-2 -3.314237,-4.172907 -7,-4.5 m -2,-3.5 V 7 M 5.5000212,8 23.500021,7" style="fill: none; stroke: #000000; stroke-width: 1px; stroke-linecap: round; stroke-linejoin: miter; stroke-opacity: 1;" />
</svg>