<svg width="26" height="26" viewBox="0 0 26 26" xmlns="https://www.w3.org/2000/svg">
<path d="m 7.5,21.5 h 11 M 9,19.5 h 8 m 2.5,3.5 -3,-4.5 m -10,4.5 3,-4.5 M 9,3.5 l 1,-1 h 6 l 1,1 M 14.5,5 V 3 m -3,2 V 3" style="fill: none; stroke: #000000; stroke-width: 1px; stroke-linecap: round; stroke-linejoin: round; stroke-opacity: 1;" />
<path d="M 8,5 C 7.446002,5 7,5.4460024 7,6 v 11 c 0,0.553996 0.446002,1 1,1 h 10 c 0.553996,0 1,-0.446004 1,-1 V 6 C 19,5.4460024 18.553996,5 18,5 Z m 2,1 h 6 c 0.5,0 0.5,1 0,1 H 10 C 9.5,7 9.5,6 10,6 Z M 8,8 h 4.052734 l 0.644532,6 H 8 Z m 5.947266,0 H 18 v 6 H 13.302734 Z M 8.5,16 h 2 c 0.5,0 0.5,1 0,1 h -2 C 8,17 8,16 8.5,16 Z m 7,0 h 2 c 0.5,0 0.5,1 0,1 h -2 c -0.5,0 -0.5,-1 0,-1 z" style="fill: #000000; stroke: none; stroke-width: 3; stroke-linecap: round; stroke-linejoin: round;" />
</svg>