<svg width="26" height="26" viewBox="0 0 26 26" xmlns="https://www.w3.org/2000/svg">
<path d="M 6.5,7 C 5.83334,7 5.36236,7.40809 5.17773,7.77734 4.99311,8.1466 5,8.5 5,8.5 V 9 C 4,9 4,10 4,10 v 2 c 0,0 0,1 1,1 v 6.5 c 3e-5,0.27613 0.22387,0.49997 0.5,0.5 H 6 v 1 c 0,0.99999 1,1 1,1 h 2 c 0,0 1,-10e-6 1,-1 v -1 h 6 v 1 c 0,0.99999 1,1 1,1 h 2 c 0,0 1,-10e-6 1,-1 v -1 h 0.5 c 0.27613,-3e-5 0.49997,-0.22387 0.5,-0.5 V 13 c 1,0 1,-1 1,-1 v -2 c 0,0 0,-1 -1,-1 V 8.5 C 21,8.5 21.007,8.1466 20.82227,7.77734 20.63764,7.40809 20.16666,7 19.5,7 Z M 6,8.5 C 6,8.5 5.9671,8.033146 6.5,8 H 12 l 0.75,5 h 0.5 L 14,8 h 5.5 C 20,8 20,8.5 20,8.5 v 4.16016 c -5.12926,0.7859 -8.87074,0.7859 -14,0 z M 8,15 c 0.55228,0 1,0.44772 1,1 v 1 C 9,17.55228 8.55228,18 8,18 7.44772,18 7,17.55228 7,17 v -1 c 0,-0.55228 0.44772,-1 1,-1 z m 2.5,0 h 5 c 0.27614,0 0.5,0.22386 0.5,0.5 0,0.27614 -0.22386,0.5 -0.5,0.5 h -5 C 10.22386,16 10,15.77614 10,15.5 10,15.22386 10.22386,15 10.5,15 Z m 7.5,0 c 0.55228,0 1,0.44772 1,1 v 1 c 0,0.55228 -0.44772,1 -1,1 -0.55228,0 -1,-0.44772 -1,-1 v -1 c 0,-0.55228 0.44772,-1 1,-1 z m -7.5,2 h 5 c 0.27614,0 0.5,0.22386 0.5,0.5 0,0.27614 -0.22386,0.5 -0.5,0.5 h -5 C 10.22386,18 10,17.77614 10,17.5 10,17.22386 10.22386,17 10.5,17 Z" style="fill: #000000; stroke: none; stroke-linejoin: round;" />
<path d="m 11,3.5 h 4 M 15.5,7 V 2.5 M 10.5,7 V 2.5 m 0.5,3 h 4 M 17.5,7 V 5.5 h 2 V 7 M 6.5,7 V 5.5 h 2 V 7" style="fill: none; stroke: #000000; stroke-width: 1px; stroke-linecap: round; stroke-linejoin: round; stroke-opacity: 1;" />
</svg>