<svg width="26" height="26" viewBox="0 0 26 26" xmlns="https://www.w3.org/2000/svg">
<path d="m 5,11 c 0,0 -1,2e-6 -1,1 0,0.999998 1,1 1,1 0,0 -1,2.000004 0,4 v 2 c 0,0.999998 1,1 1,1 h 1 c 0,0 1,-2e-6 1,-1 v -1 h 10 v 1 c 0,0.999998 1,1 1,1 h 1 c 0,0 1,-2e-6 1,-1 v -2 c 1,-1.999996 0,-4 0,-4 0,0 1,-2e-6 1,-1 0,-0.999998 -1,-1 -1,-1 z m 5.5,2 h 5 c 0.27614,0 0.5,0.223858 0.5,0.5 0,0.276142 -0.22386,0.5 -0.5,0.5 h -5 C 10.22386,14 10,13.776142 10,13.5 10,13.223858 10.22386,13 10.5,13 Z m -3,0.5 c 0.55228,0 1,0.447715 1,1 0,0.552285 -0.44772,1 -1,1 -0.55228,0 -1,-0.447715 -1,-1 0,-0.552285 0.44772,-1 1,-1 z m 11,0 c 0.55228,0 1,0.447715 1,1 0,0.552285 -0.44772,1 -1,1 -0.55228,0 -1,-0.447715 -1,-1 0,-0.552285 0.44772,-1 1,-1 z m -8,1.5 h 5 c 0.27614,0 0.5,0.223858 0.5,0.5 0,0.276142 -0.22386,0.5 -0.5,0.5 h -5 C 10.22386,16 10,15.776142 10,15.5 10,15.223858 10.22386,15 10.5,15 Z" style="fill: #000000; stroke: none; stroke-width: 1px; stroke-linecap: butt; stroke-linejoin: miter; stroke-opacity: 1;" />
<path d="m 6.5,12 c 0,0 1,-3 2,-4 1,-1 8,-1 9,0 1,1 2,4 2,4" style="fill: none; stroke: #000000; stroke-width: 1px; stroke-linecap: butt; stroke-linejoin: miter; stroke-opacity: 1;" />
</svg>