<svg width="26" height="26" viewBox="0 0 26 26" xmlns="https://www.w3.org/2000/svg">
<circle cx="11.499998" cy="11.499999" r="2" style="fill: #000000; fill-opacity: 1; stroke: none; stroke-width: 2; stroke-linecap: butt; stroke-linejoin: round; stroke-miterlimit: 4; stroke-dasharray: none; stroke-dashoffset: 0; stroke-opacity: 1;" />
<path d="m 11.499999,22.499999 c -6.5719225,-6.5 4.5,-17.5000004 11,-11 m -16.0000005,6 L 16.499999,6.4999986 M 6.4999986,18.5 a 1,1.000002 0 0 1 -1,1.000002 1,1.000002 0 0 1 -1,-1.000002 1,1.000002 0 0 1 1,-1.000002 1,1.000002 0 0 1 1,1.000002 z M 18.499998,5.5000005 a 1,1.000002 0 0 1 -1,1.000002 1,1.000002 0 0 1 -1,-1.000002 1,1.000002 0 0 1 1,-1.000002 1,1.000002 0 0 1 1,1.000002 z" style="fill: none; stroke: #000000; stroke-width: 1px; stroke-linecap: round; stroke-linejoin: miter; stroke-opacity: 1;" />
</svg>